<svg width="69" height="69" viewBox="0 0 69 69" fill="none" xmlns="http://www.w3.org/2000/svg">
<path d="M68.1619 34.0763C68.1619 35.5563 66.6727 36.916 66.4877 38.3497C66.3027 39.8019 67.3756 41.5039 67.0056 42.9006C66.6264 44.3159 64.8412 45.2501 64.2862 46.5913C63.722 47.9418 64.3232 49.8657 63.5925 51.1237C62.8617 52.3817 60.9008 52.8257 60.0128 53.9819C59.1248 55.1381 59.2081 57.1453 58.1721 58.1813C57.1453 59.2081 55.1289 59.1248 53.9727 60.0128C52.8257 60.9008 52.3817 62.8617 51.1237 63.6017C49.8657 64.3232 47.9418 63.722 46.5913 64.2862C45.2501 64.8412 44.3159 66.6264 42.9006 67.0056C41.5039 67.3756 39.8019 66.3027 38.3497 66.4877C36.916 66.6727 35.5563 68.1619 34.0763 68.1619C32.5963 68.1619 31.2366 66.6727 29.8121 66.4877C28.3507 66.3027 26.6487 67.3756 25.252 67.0056C23.8368 66.6264 22.9025 64.8412 21.5613 64.2862C20.2108 63.722 18.2869 64.3232 17.0289 63.6017C15.7709 62.8617 15.3269 60.9008 14.18 60.0128C13.0237 59.1248 11.0073 59.2081 9.98055 58.1721C8.94457 57.1453 9.02782 55.1381 8.13984 53.9727C7.25185 52.8257 5.29089 52.3817 4.56016 51.1237C3.82942 49.8657 4.43066 47.9418 3.86642 46.5913C3.31143 45.2501 1.52622 44.3159 1.14698 42.9006C0.776984 41.5039 1.84996 39.8019 1.66497 38.3497C1.47997 36.916 0 35.5563 0 34.0763C0 32.5963 1.47997 31.2366 1.66497 29.8121C1.84996 28.3507 0.776984 26.6487 1.14698 25.252C1.52622 23.8368 3.31143 22.9025 3.86642 21.5613C4.43066 20.2108 3.82942 18.2869 4.56016 17.0289C5.29089 15.7709 7.25185 15.3269 8.13984 14.18C9.02782 13.0237 8.94457 11.0073 9.98055 9.98055C11.0073 8.94457 13.0237 9.02782 14.18 8.13984C15.3269 7.25185 15.7709 5.29089 17.0382 4.56016C18.2869 3.82942 20.2108 4.43066 21.5613 3.86642C22.9025 3.31143 23.8368 1.52622 25.252 1.14698C26.6487 0.776984 28.3507 1.84996 29.8121 1.66497C31.2366 1.47997 32.5963 0 34.0763 0C35.5563 0 36.916 1.47997 38.3497 1.66497C39.8019 1.84996 41.5039 0.776984 42.9006 1.14698C44.3159 1.52622 45.2501 3.31143 46.5913 3.86642C47.9418 4.43066 49.8657 3.82942 51.1237 4.56016C52.3817 5.29089 52.8257 7.25185 53.9819 8.13984C55.1381 9.02782 57.1453 8.94457 58.1721 9.98055C59.2081 11.0073 59.1248 13.0237 60.0128 14.18C60.9008 15.3269 62.8617 15.7709 63.6017 17.0382C64.3232 18.2869 63.722 20.2108 64.2862 21.5613C64.8412 22.9025 66.6264 23.8368 67.0056 25.252C67.3756 26.6487 66.3027 28.3507 66.4877 29.8121C66.6727 31.2366 68.1619 32.5963 68.1619 34.0763Z" fill="#FBC22D"/>
<path d="M34.0764 64.9151C17.0752 64.9151 3.24673 51.0774 3.24673 34.0763C3.24673 17.0751 17.0752 3.24664 34.0764 3.24664C51.0775 3.24664 64.9152 17.0751 64.9152 34.0763C64.9152 51.0774 51.0775 64.9151 34.0764 64.9151ZM34.0764 17.6949C25.0393 17.6949 17.6949 25.0392 17.6949 34.0763C17.6949 43.1133 25.0393 50.4669 34.0764 50.4669C43.1134 50.4669 50.467 43.1133 50.467 34.0763C50.467 25.0392 43.1134 17.6949 34.0764 17.6949Z" fill="#FEFEFE"/>
<path d="M34.0764 63.3889C17.917 63.3889 4.76375 50.2449 4.76375 34.0762C4.76375 17.9168 17.917 4.76355 34.0764 4.76355C50.2451 4.76355 63.3891 17.9168 63.3891 34.0762C63.3891 50.2449 50.2451 63.3889 34.0764 63.3889ZM34.0764 16.1686C24.2069 16.1686 16.1688 24.2067 16.1688 34.0762C16.1688 43.955 24.2069 51.9838 34.0764 51.9838C43.9552 51.9838 51.984 43.955 51.984 34.0762C51.984 24.2067 43.9552 16.1686 34.0764 16.1686Z" fill="#ED3237"/>
<path d="M34.0764 50.4577C43.1287 50.4577 50.4671 43.1235 50.4671 34.0763C50.4671 25.0291 43.1287 17.6949 34.0764 17.6949C25.0241 17.6949 17.6858 25.0291 17.6858 34.0763C17.6858 43.1235 25.0241 50.4577 34.0764 50.4577Z" fill="#FBC22D"/>
<path d="M56.1372 33.0217C56.2297 33.5397 56.6181 33.9097 56.9974 33.845C57.3766 33.771 57.6079 33.29 57.5061 32.772C57.4136 32.254 57.0344 31.884 56.6551 31.9488C56.2759 32.0228 56.0447 32.5038 56.1372 33.0217Z" fill="#FEFEFE"/>
<path d="M57.8577 32.7721C57.7652 33.2901 57.9964 33.7711 58.3757 33.8451C58.7549 33.9098 59.1434 33.5398 59.2359 33.0218C59.3284 32.5038 59.0972 32.0229 58.7179 31.9489C58.3387 31.8841 57.9594 32.2448 57.8577 32.7721Z" fill="#FEFEFE"/>
<path d="M59.3376 33.9838C59.1711 34.3445 59.2544 34.7423 59.5134 34.8533C59.7816 34.9735 60.1239 34.7793 60.2903 34.4185C60.4568 34.0485 60.3736 33.66 60.1146 33.5398C59.8464 33.4195 59.4949 33.6138 59.3376 33.9838Z" fill="#FEFEFE"/>
<path d="M56.0169 33.956C56.2019 34.3075 56.1371 34.7053 55.8874 34.8348C55.6284 34.9735 55.2676 34.7978 55.0826 34.4463C54.8976 34.0855 54.9531 33.6971 55.2121 33.5583C55.4711 33.4196 55.8319 33.6046 56.0169 33.956Z" fill="#FEFEFE"/>
<path d="M59.3932 35.7136C59.6892 36.5183 58.3942 36.1021 57.7189 36.1021C57.0992 36.1021 55.7672 36.5183 56.0447 35.7136C56.3685 34.7978 56.794 34.1596 57.7189 34.1596C58.6439 34.1596 59.0139 34.7423 59.3932 35.7136Z" fill="#FEFEFE"/>
<path d="M18.6014 20.3126L18.1112 19.7946L18.4997 19.4246L16.1225 16.9272L15.7247 17.2971L15.2437 16.7884L16.8439 15.2622C17.1584 14.9662 17.4822 14.7904 17.8244 14.7442C18.1574 14.6979 18.5367 14.8829 18.9437 15.3177C19.3506 15.7432 19.5356 16.1224 19.4986 16.4647C19.4709 16.8069 19.2859 17.1399 18.9437 17.4636L18.3702 18.0094L19.1379 18.8141L19.6281 18.3516L20.1184 18.8696L18.6014 20.3126ZM16.7607 16.3167L17.8892 17.5006L18.2314 17.1769C18.4442 16.9734 18.5737 16.7792 18.6107 16.5942C18.6569 16.3999 18.5644 16.1964 18.3424 15.9652C18.0834 15.6969 17.8707 15.5767 17.6949 15.6229C17.5099 15.6599 17.3064 15.7987 17.0752 16.0207L16.7607 16.3167ZM22.3568 16.9364L22.0053 16.3167L22.3106 16.1409L21.5059 11.812L22.4308 11.2848L25.77 14.1522L26.066 13.9857L26.4175 14.6054L24.8728 15.4934L24.5213 14.8737L24.9838 14.6054L24.3548 14.069L22.8656 14.9199L23.0228 15.7339L23.4761 15.4749L23.8368 16.0854L22.3568 16.9364ZM22.7083 14.1985L23.7998 13.5695L22.3291 12.2652L22.7083 14.1985ZM27.8605 14.2447L27.4997 12.6537L28.2305 12.478C28.323 12.8572 28.4525 13.107 28.6282 13.2365C28.804 13.3752 29.0445 13.403 29.3404 13.329C29.5069 13.292 29.6364 13.1995 29.7567 13.0515C29.8677 12.9127 29.9047 12.7462 29.8584 12.5612C29.7937 12.2467 29.6549 12.0525 29.4514 11.9878C29.2572 11.9138 28.952 11.8768 28.545 11.8583C28.138 11.8398 27.8142 11.7658 27.583 11.6363C27.3425 11.4975 27.176 11.22 27.0742 10.7853C26.9725 10.3413 27.0187 9.97129 27.213 9.66605C27.4072 9.37006 27.694 9.17581 28.064 9.09256C28.4987 8.99081 28.8595 9.08331 29.1462 9.36081L29.1554 9.35156L29.0722 8.97231L29.7844 8.80582L30.1267 10.295L29.3867 10.4615C29.2942 10.1378 29.1739 9.92504 29.0167 9.8048C28.8595 9.68455 28.6467 9.6568 28.3785 9.7123C27.953 9.81405 27.7865 10.0638 27.879 10.4708C27.9345 10.7113 28.0455 10.85 28.212 10.887C28.3692 10.9333 28.6745 10.9703 29.1184 11.0073C29.5624 11.0443 29.9047 11.1368 30.1544 11.3033C30.4042 11.4605 30.5799 11.7565 30.6817 12.2005C30.7464 12.4872 30.7464 12.7555 30.6817 12.996C30.6169 13.2365 30.4967 13.44 30.3209 13.6065C30.1452 13.7637 29.9417 13.8655 29.7012 13.9302C29.4422 13.9857 29.2109 14.0042 29.026 13.9765C28.841 13.958 28.656 13.8562 28.4895 13.6897L28.4802 13.699L28.5727 14.0875L27.8605 14.2447ZM32.5501 13.3105L32.5039 11.6733L33.2624 11.6548C33.2716 12.034 33.3549 12.3115 33.4936 12.478C33.6416 12.6445 33.8729 12.7185 34.1781 12.7092C34.3446 12.7092 34.4926 12.6445 34.6406 12.5242C34.7793 12.404 34.8533 12.2467 34.8441 12.0618C34.8348 11.738 34.7423 11.516 34.5573 11.4143C34.3816 11.3125 34.0948 11.2015 33.6971 11.109C33.2994 11.0165 32.9941 10.8778 32.7906 10.6928C32.5871 10.517 32.4761 10.2025 32.4669 9.75855C32.4576 9.30531 32.5779 8.95381 32.8276 8.69482C33.0774 8.44507 33.3919 8.31558 33.7804 8.29708C34.2243 8.28783 34.5573 8.44507 34.7793 8.77807H34.7978L34.7886 8.38958L35.5193 8.37108L35.5563 9.89729L34.7978 9.91579C34.7793 9.57355 34.6961 9.33306 34.5666 9.18506C34.4371 9.03706 34.2428 8.97231 33.9654 8.97231C33.5306 8.99081 33.3086 9.20356 33.3271 9.6198C33.3271 9.8603 33.4104 10.0175 33.5584 10.0915C33.7064 10.1655 33.9931 10.2673 34.4186 10.3875C34.8533 10.517 35.1678 10.6743 35.3806 10.887C35.5933 11.0905 35.7043 11.4143 35.7228 11.8768C35.7228 12.1635 35.6766 12.4225 35.5563 12.6537C35.4453 12.8757 35.2881 13.0515 35.0846 13.1717C34.8811 13.292 34.6591 13.3567 34.4093 13.366C34.1411 13.3752 33.9191 13.3475 33.7434 13.2827C33.5584 13.218 33.4011 13.0885 33.2716 12.8942H33.2624L33.2716 13.292L32.5501 13.3105ZM37.1843 13.255L37.3415 12.552L37.8318 12.6722L38.6088 9.30531L38.1185 9.19431L38.2758 8.50982L41.9387 9.35156L41.6057 10.7668L40.8935 10.6003L41.06 9.86955L39.469 9.49955L39.1637 10.8038L39.7835 10.9518L39.9315 10.295L40.5882 10.443L40.1442 12.3762L39.4875 12.2282L39.6355 11.5993L39.0158 11.4605L38.692 12.8665L40.283 13.2365L40.4865 12.3762L41.1987 12.5427L40.838 14.0967L37.1843 13.255ZM42.1237 14.4852L42.4474 13.847L42.7619 14.0135L45.9531 10.9795L46.9058 11.4698L46.3139 15.8264L46.6191 15.9837L46.2954 16.6219L44.7044 15.8079L45.0374 15.1697L45.5091 15.4194L45.6201 14.5962L44.0846 13.8192L43.4927 14.3835L43.9644 14.6239L43.6407 15.2622L42.1237 14.4852ZM44.6119 13.2827L45.7311 13.8562L46.0271 11.9138L44.6119 13.2827ZM47.2111 17.4636L47.7106 16.9457L48.0991 17.3156L50.4855 14.8182L50.0878 14.4482L50.5688 13.9395L52.28 15.5674C52.6037 15.8819 52.798 16.1779 52.8535 16.4832C52.909 16.7792 52.7425 17.1306 52.354 17.5376C52.1227 17.7781 51.8822 17.9076 51.614 17.9261C51.355 17.9539 51.1145 17.8799 50.8925 17.7041L50.874 17.7134C51.0405 17.8984 51.1053 18.0926 51.0683 18.2961C51.0313 18.5089 50.9295 18.7586 50.763 19.0546L50.467 19.5818L50.7723 19.8593L50.2728 20.3773L49.4495 19.5818L50.134 18.3609C50.245 18.1759 50.3098 18.0094 50.3098 17.8614C50.319 17.7134 50.2543 17.5746 50.1155 17.4359L49.6345 16.9827L48.7373 17.9261L49.1165 18.2869L48.6263 18.8049L47.2111 17.4636ZM51.1145 15.4287L50.1248 16.4647L50.615 16.9364C51.0128 17.3156 51.3828 17.3249 51.725 16.9734C52.0487 16.6312 52.0395 16.3074 51.6972 15.9837L51.1145 15.4287Z" fill="#FEFEFE"/>
<path d="M8.92614 33.0217C9.01864 33.5397 9.40713 33.9097 9.78638 33.845C10.1656 33.771 10.3969 33.29 10.3044 32.772C10.2026 32.254 9.82337 31.884 9.44413 31.9488C9.06489 32.0228 8.83364 32.5038 8.92614 33.0217Z" fill="#FEFEFE"/>
<path d="M10.656 32.7721C10.5542 33.2901 10.7854 33.7711 11.1647 33.8451C11.5439 33.9098 11.9324 33.5398 12.0249 33.0218C12.1267 32.5038 11.8954 32.0229 11.5162 31.9489C11.1369 31.8841 10.7484 32.2448 10.656 32.7721Z" fill="#FEFEFE"/>
<path d="M12.1266 33.9838C11.9601 34.3445 12.0433 34.7423 12.3116 34.8533C12.5706 34.9735 12.9221 34.7793 13.0793 34.4185C13.2458 34.0485 13.1626 33.66 12.9036 33.5398C12.6353 33.4195 12.2931 33.6138 12.1266 33.9838Z" fill="#FEFEFE"/>
<path d="M8.80595 33.956C8.99095 34.3075 8.93545 34.7053 8.67645 34.8348C8.41746 34.9735 8.05672 34.7978 7.87172 34.4463C7.68672 34.0855 7.74222 33.6971 8.00122 33.5583C8.26021 33.4196 8.62095 33.6046 8.80595 33.956Z" fill="#FEFEFE"/>
<path d="M12.1821 35.7136C12.4874 36.5183 11.1832 36.1021 10.5079 36.1021C9.88818 36.1021 8.5562 36.5183 8.84295 35.7136C9.15744 34.7978 9.58293 34.1596 10.5079 34.1596C11.4329 34.1596 11.8121 34.7423 12.1821 35.7136Z" fill="#FEFEFE"/>
<path fill-rule="evenodd" clip-rule="evenodd" d="M28.7115 40.5327C28.6745 40.1535 28.8318 39.321 28.952 39.2655C28.7208 38.1277 27.9068 36.4998 27.5646 35.473C27.0928 34.0301 26.7506 33.0496 28.0826 32.4021C28.5543 33.2901 30.1638 34.2798 31.8195 34.0116C33.2162 33.7896 33.7527 32.7629 34.1689 31.6436C34.8349 29.8492 40.2831 31.1164 41.4578 31.8564C41.0785 32.1616 38.2851 32.8461 37.2399 35.8985C36.3981 38.3405 37.4341 39.6725 37.9244 40.8657C38.1094 41.3282 38.5071 41.7814 38.7106 42.0959C35.9264 40.6067 34.7794 40.1072 32.652 38.2572C32.1895 37.2953 29.5163 35.0753 28.545 35.3158C28.6838 35.5933 29.359 35.9448 29.655 36.1483C30.2378 36.5275 30.469 36.768 30.9315 37.212C33.8914 40.1257 33.5862 39.0527 32.4855 40.7177C31.9767 41.4762 31.3015 43.5019 31.098 44.4176L29.914 44.3899C29.7383 43.5481 29.6828 42.5399 29.5163 41.7259C29.3498 40.9027 29.1093 40.0147 28.952 39.247C28.7763 39.469 28.6838 40.246 28.7115 40.5327C28.9335 40.9582 29.4053 43.8071 29.2943 44.3436L28.4063 44.3899C27.7311 45.6663 28.0271 47.0538 27.5461 47.8215H33.17C33.1607 47.7383 33.17 47.6366 33.1977 47.5256C33.2994 47.1093 33.4012 45.2501 33.4012 44.7321L31.6437 44.3991C31.727 43.6036 32.1247 42.8266 32.356 42.0774C32.6982 40.9767 33.1422 40.6252 33.5769 39.9315C34.4742 40.4772 35.0292 41.4577 36.6941 41.9849C38.4053 42.5769 38.1464 42.5029 39.7188 42.7896C40.4773 42.9284 42.4105 44.1771 44.9635 42.8729C47.1002 41.7907 49.0426 38.9602 48.3304 36.102C47.1927 31.5326 43.169 31.8749 42.4568 31.6344C41.8463 31.4401 41.3838 31.1349 40.6068 30.9406C39.8946 30.7649 39.1361 30.6354 38.5533 30.3486C39.0621 28.7022 38.9048 27.4442 37.1936 26.584C36.4814 26.2325 35.6304 26.0752 34.7979 26.325C33.6694 26.658 33.8359 27.0187 33.1977 27.6015L32.1155 27.0742C31.986 25.9827 32.1802 24.401 32.5872 23.587C33.4752 23.6888 35.0107 24.142 35.8154 24.4565C36.8791 24.882 39.8113 25.918 40.875 25.2705C41.2265 25.0485 41.6335 24.6045 41.7723 24.031C42.1608 22.4586 41.9943 21.6723 40.6623 21.1913C39.0713 20.6178 35.2974 19.7299 33.7342 20.5716C32.8277 21.0526 32.2912 21.9406 31.9767 23.069C31.5975 24.438 31.505 25.4185 31.5882 26.8892C29.7753 26.7597 29.0908 27.139 28.1011 28.2489C28.0918 28.2674 28.0641 28.2952 28.0548 28.3137C28.0363 28.3322 28.0086 28.3507 27.9993 28.3692L27.8791 28.4894C27.1298 28.0362 25.8163 26.9725 24.8451 26.4822C23.0969 25.585 22.6159 25.7052 21.8112 27.3887C21.2377 28.5727 20.8492 29.7659 20.396 31.0886C19.6097 33.4196 19.6652 34.9366 21.8944 36.1298C22.3662 36.3888 23.3466 36.7773 23.8739 36.3703C25.1966 35.3435 23.4576 28.7299 24.5121 27.4257C24.9931 26.8245 25.6869 27.5645 26.1401 27.842C26.7413 28.1934 27.2131 28.4617 27.6941 28.8779C27.4813 30.3671 27.4721 30.5059 27.8791 31.8564C27.2871 32.4946 26.2511 32.4854 26.7506 34.4648C27.0743 35.769 28.1936 39.2747 28.7115 40.5327Z" fill="#373435"/>
<path fill-rule="evenodd" clip-rule="evenodd" d="M29.8955 47.8216C29.6828 47.8123 29.47 47.8031 29.2573 47.7938C29.0168 47.7846 28.8225 47.7938 28.656 47.8216H29.8955Z" fill="#B38048"/>
<path fill-rule="evenodd" clip-rule="evenodd" d="M29.5162 41.7259C29.6827 42.5399 29.7382 43.5481 29.914 44.3899L31.0979 44.4176C31.3014 43.5019 31.9767 41.4762 32.4854 40.7177C33.5861 39.0527 33.8914 40.1257 30.9315 37.212C30.469 36.768 30.2377 36.5275 29.655 36.1483C29.359 35.9448 28.619 35.5655 28.4803 35.2788C29.7382 35.029 32.7074 38.322 33.7249 39.4135C35.3621 41.0784 36.2038 41.7722 38.7105 42.0959C38.507 41.7814 38.1093 41.3282 37.9243 40.8657C37.4341 39.6725 36.3981 38.3405 37.2398 35.8985C38.2851 32.8461 41.0785 32.1616 41.4577 31.8564C40.246 31.0979 34.8349 29.8584 34.1689 31.6436C33.7526 32.7628 33.2162 33.7896 31.8194 34.0116C30.1637 34.2798 28.5542 33.2901 28.0825 32.4021C26.7505 33.0496 27.0928 34.0301 27.5645 35.473C27.916 36.5368 28.434 38.0722 28.8595 39.4135C28.8687 39.432 28.8687 39.4505 28.878 39.469C29.174 40.4032 29.4145 41.2264 29.5162 41.7259Z" fill="#FEFEFE"/>
<path fill-rule="evenodd" clip-rule="evenodd" d="M30.1822 27.4257C27.398 28.2212 27.435 31.7547 29.2757 32.9109C31.4587 34.2799 34.1596 33.4381 33.7526 29.7197C33.5769 28.1102 32.0507 26.8985 30.1822 27.4257Z" fill="#FEFEFE"/>
<path fill-rule="evenodd" clip-rule="evenodd" d="M34.2984 30.6446C34.8441 30.4689 35.2789 30.3024 35.9079 30.2099C36.4258 30.1266 37.7023 30.2561 38.0261 30.0712C38.3221 29.9047 39.0158 28.5079 37.3046 27.2222C36.3056 26.473 34.7239 26.5285 34.0486 27.3887C33.5122 28.0639 33.6787 27.9437 33.9931 28.7299C34.2429 29.3774 34.2059 29.9324 34.2984 30.6446Z" fill="#FEFEFE"/>
<path fill-rule="evenodd" clip-rule="evenodd" d="M28.2675 47.1833C29.7382 47.2388 31.2367 47.5255 32.7444 47.3683C32.8924 46.7301 32.9571 45.7681 32.8369 45.1021C32.0877 44.9448 29.4145 44.8524 28.6467 44.9726C28.508 45.7033 28.2582 46.3971 28.2675 47.1833Z" fill="#ED3237"/>
<path fill-rule="evenodd" clip-rule="evenodd" d="M43.6499 33.2068C41.6057 33.9376 43.9274 36.9808 45.8699 36.324C47.8216 35.6488 45.5924 32.5131 43.6499 33.2068Z" fill="#FEFEFE"/>
<path fill-rule="evenodd" clip-rule="evenodd" d="M35.5379 25.9827C35.7507 25.6497 35.7877 25.5295 35.8524 25.0392C35.4547 24.734 34.2244 24.438 33.6694 24.438C33.6787 24.993 33.4474 25.6867 33.8544 25.881C34.1319 26.0105 35.2419 26.0475 35.5379 25.9827Z" fill="#373435"/>
<path fill-rule="evenodd" clip-rule="evenodd" d="M28.6006 25.4648L28.7578 26.399C29.6735 26.3898 30.0898 26.0105 30.8113 25.8255L30.432 24.6046C29.7568 24.6508 29.0075 25.1133 28.6006 25.4648Z" fill="#373435"/>
<path fill-rule="evenodd" clip-rule="evenodd" d="M30.6354 29.8862C29.5532 30.2932 30.2377 31.7824 31.2089 31.3661C32.1062 30.9869 31.5882 29.5439 30.6354 29.8862Z" fill="#373435"/>
<path d="M42.6602 43.5481C45.8326 43.5481 48.4043 40.9018 48.4043 37.6375C48.4043 34.3731 45.8326 31.7269 42.6602 31.7269C39.4878 31.7269 36.9161 34.3731 36.9161 37.6375C36.9161 40.9018 39.4878 43.5481 42.6602 43.5481Z" fill="#373435"/>
<path fill-rule="evenodd" clip-rule="evenodd" d="M46.4064 34.6775C47.7846 36.0465 46.9336 39.3395 44.5102 36.9253C41.9572 34.3908 44.7322 33.0126 46.4064 34.6775Z" fill="#FEFEFE"/>
<path d="M34.6777 36.6756C34.8003 36.6756 34.8997 36.568 34.8997 36.4351C34.8997 36.3023 34.8003 36.1946 34.6777 36.1946C34.5551 36.1946 34.4557 36.3023 34.4557 36.4351C34.4557 36.568 34.5551 36.6756 34.6777 36.6756Z" fill="#373435" stroke="#373435" stroke-width="0.318049"/>
<path d="M33.4197 37.2029C33.5423 37.2029 33.6417 37.0952 33.6417 36.9624C33.6417 36.8296 33.5423 36.7219 33.4197 36.7219C33.2971 36.7219 33.1977 36.8296 33.1977 36.9624C33.1977 37.0952 33.2971 37.2029 33.4197 37.2029Z" fill="#373435" stroke="#373435" stroke-width="0.318049"/>
<path d="M34.1967 38.2111C34.3755 38.2111 34.5205 38.0496 34.5205 37.8504C34.5205 37.6511 34.3755 37.4896 34.1967 37.4896C34.0179 37.4896 33.873 37.6511 33.873 37.8504C33.873 38.0496 34.0179 38.2111 34.1967 38.2111Z" fill="#373435" stroke="#373435" stroke-width="0.318049"/>
<path d="M29.5994 34.6221C29.5809 34.6591 27.6755 35.8615 28.6097 36.3703" stroke="#373435" stroke-width="0.727219" stroke-linecap="round" stroke-linejoin="round"/>
<path d="M35.1956 29.6179C35.5327 29.6179 35.8061 29.3446 35.8061 29.0075C35.8061 28.6703 35.5327 28.397 35.1956 28.397C34.8584 28.397 34.5851 28.6703 34.5851 29.0075C34.5851 29.3446 34.8584 29.6179 35.1956 29.6179Z" fill="#373435"/>
<path d="M13.4215 50.134L13.958 49.6622L14.291 50.0322L16.8625 47.729L16.5295 47.359L17.0475 46.8873L19.5542 49.6807L18.4719 50.652L17.9817 50.1062L18.5367 49.6067L17.4452 48.3857L16.4555 49.2737L16.8717 49.7455L17.3712 49.3015L17.8152 49.801L16.3445 51.1237L15.9005 50.6242L16.3815 50.1987L15.956 49.727L14.8737 50.689L15.9652 51.9099L16.622 51.3179L17.1122 51.8637L15.9282 52.9274L13.4215 50.134ZM20.1924 48.0898L18.8142 48.1823L18.4627 47.7845L19.6096 47.4423L20.1924 48.0898ZM19.9334 56.2758C19.5634 56.0168 19.2952 55.7116 19.1472 55.3509C18.9992 54.9809 18.9622 54.5924 19.0362 54.1854C19.1102 53.7691 19.2859 53.3621 19.5634 52.9552C19.8316 52.5574 20.1554 52.2429 20.5161 52.0117C20.8676 51.7897 21.2469 51.6787 21.6446 51.6879C22.0423 51.6972 22.4216 51.8267 22.8008 52.0857C23.1708 52.3354 23.4298 52.6499 23.5778 53.0107C23.7351 53.3806 23.7628 53.7691 23.6888 54.1761C23.6148 54.5924 23.4298 54.9994 23.1523 55.4156C22.8748 55.8134 22.5603 56.1278 22.2088 56.3498C21.8481 56.5718 21.4781 56.6828 21.0896 56.6736C20.7011 56.6643 20.3126 56.5348 19.9334 56.2758ZM20.3404 55.6839C20.6919 55.9243 21.0434 55.9706 21.3949 55.8041C21.7556 55.6469 22.0886 55.3416 22.3938 54.8884C22.7083 54.4259 22.8748 54.0004 22.8933 53.6119C22.9118 53.2234 22.7453 52.9089 22.3938 52.6684C22.0516 52.4372 21.7001 52.3909 21.3394 52.5574C20.9786 52.7147 20.6456 53.0199 20.3311 53.4824C20.0259 53.9356 19.8594 54.3519 19.8409 54.7496C19.8224 55.1381 19.9889 55.4526 20.3404 55.6839ZM26.4638 56.9048L26.0198 58.2831L26.5748 58.4588C26.8615 58.5513 27.0927 58.5698 27.2685 58.5235C27.435 58.468 27.5645 58.3016 27.657 58.0148C27.7587 57.7188 27.7402 57.5153 27.6292 57.3951C27.509 57.2748 27.3055 57.1731 27.028 57.0806L26.4638 56.9048ZM27.0742 54.9901L26.6673 56.2666L27.1297 56.4146C27.3887 56.4978 27.6015 56.5163 27.7772 56.4701C27.9622 56.4238 28.0917 56.2758 28.175 56.0168C28.2582 55.7579 28.2397 55.5729 28.1195 55.4526C27.9992 55.3324 27.8142 55.2306 27.5737 55.1566L27.0742 54.9901ZM24.4843 58.5328L24.7063 57.8576L25.1873 58.0056L26.2418 54.7219L25.7608 54.5739L25.9735 53.8986L27.8512 54.5091C28.3507 54.6664 28.7115 54.8514 28.9427 55.0734C29.174 55.2954 29.2202 55.6469 29.0537 56.1463C28.8595 56.7661 28.471 57.0251 27.9067 56.9326L27.8975 56.9511C28.1565 57.0436 28.3415 57.2193 28.4525 57.4783C28.5727 57.7466 28.582 58.0241 28.4895 58.32C28.2952 58.9028 28.027 59.2265 27.657 59.2913C27.2962 59.3468 26.8523 59.2913 26.3343 59.1248L24.4843 58.5328ZM29.5162 59.985L29.6272 59.282L30.1359 59.3653L30.6632 55.9521L30.1544 55.8688L30.2562 55.1751L32.1431 55.4711L32.0414 56.1648L31.5327 56.0816L31.0054 59.4948L31.5142 59.578L31.4032 60.281L29.5162 59.985ZM36.6293 55.3879L36.7126 57.1731L35.9171 57.2101C35.8986 56.8493 35.7876 56.5626 35.5933 56.3591C35.3898 56.1463 35.1308 56.0538 34.8163 56.0631C34.3908 56.0908 34.1041 56.2851 33.9376 56.6643C33.7711 57.0528 33.6971 57.5153 33.7249 58.0703C33.7434 58.5698 33.8729 58.9675 34.0949 59.2728C34.3261 59.5873 34.6406 59.7353 35.0568 59.7168C35.3158 59.6983 35.5378 59.5965 35.6951 59.3838C35.8616 59.1803 35.9448 58.9213 35.9448 58.616L36.7866 58.579C36.8051 58.9953 36.7218 59.3375 36.5553 59.615C36.3888 59.8833 36.1761 60.0868 35.8986 60.2163C35.6303 60.3458 35.3528 60.4105 35.0476 60.429C34.3539 60.4568 33.8081 60.2533 33.4196 59.8093C33.0311 59.3653 32.8184 58.7733 32.7906 58.0333C32.7629 57.5338 32.8184 57.0898 32.9479 56.6921C33.0774 56.2943 33.2809 55.9706 33.5676 55.7394C33.8544 55.5081 34.2151 55.3879 34.6313 55.3601C35.1678 55.3416 35.5748 55.5451 35.8616 55.9798V55.9891L35.8338 55.4249L36.6293 55.3879ZM38.285 60.0683L38.1185 59.3745L38.5995 59.2543L37.7578 55.9058L37.2768 56.0261L37.101 55.3509L39.025 54.8699L39.2008 55.5451L38.618 55.6931L38.9418 56.9881L40.6715 56.5626L40.3477 55.2584L39.7465 55.4156L39.58 54.7311L41.5225 54.2409L41.6982 54.9254L41.1987 55.0456L42.0312 58.394L42.5307 58.2738L42.7064 58.9675L40.764 59.4485L40.5882 58.764L41.1802 58.6068L40.838 57.2378L39.1083 57.6726L39.4505 59.0415L40.0332 58.8935L40.209 59.5873L38.285 60.0683ZM45.8976 57.5893C45.4999 57.8021 45.1021 57.8946 44.7136 57.8668C44.3159 57.8391 43.9552 57.6911 43.6222 57.4413C43.2892 57.1823 43.0024 56.8401 42.7712 56.4146C42.5307 55.9798 42.4012 55.5544 42.3642 55.1381C42.3272 54.7126 42.4012 54.3334 42.5862 53.9819C42.7712 53.6304 43.0672 53.3437 43.4649 53.1309C43.8627 52.9089 44.2512 52.8257 44.6489 52.8534C45.0374 52.8904 45.4074 53.0384 45.7404 53.2882C46.0641 53.5471 46.3509 53.8894 46.5914 54.3241C46.8226 54.7589 46.9613 55.1844 46.9983 55.6006C47.0261 56.0168 46.9521 56.3961 46.7763 56.7383C46.5914 57.0806 46.2954 57.3673 45.8976 57.5893ZM45.5554 56.9603C45.9254 56.7568 46.1289 56.4608 46.1474 56.0723C46.1659 55.6839 46.0456 55.2491 45.7774 54.7681C45.5091 54.2779 45.2131 53.9356 44.8709 53.7414C44.5379 53.5471 44.1772 53.5471 43.8072 53.7506C43.4372 53.9541 43.2429 54.2501 43.2152 54.6479C43.1967 55.0364 43.3262 55.4711 43.5944 55.9613C43.8534 56.4423 44.1494 56.7753 44.4916 56.9696C44.8339 57.1638 45.1854 57.1638 45.5554 56.9603ZM47.0446 50.837L49.0981 53.6396L48.6448 54.0096L46.3139 51.4382L47.0446 50.837ZM49.394 55.2029L48.7651 54.4259L49.4773 53.8431L50.1155 54.6201L49.394 55.2029ZM49.1721 48.8575L51.4753 51.4567L51.059 51.8637L48.4968 49.5235L49.1721 48.8575ZM51.9192 52.9829L51.2163 52.2707L51.873 51.6232L52.576 52.3354L51.9192 52.9829ZM50.8555 46.8503L53.5102 49.0795L53.1587 49.542L50.282 47.6088L50.8555 46.8503ZM54.1762 50.5317L53.3715 49.9305L53.9265 49.1905L54.7312 49.7917L54.1762 50.5317Z" fill="#FEFEFE"/>
</svg>
