<svg width="110" height="37" viewBox="0 0 110 37" fill="none" xmlns="http://www.w3.org/2000/svg">
<path d="M27.6316 18.2294C27.5918 15.8811 29.542 14.7667 29.6216 14.6871C28.547 13.0951 26.8356 12.8563 26.2386 12.8563C24.8057 12.697 23.4127 13.7319 22.6963 13.7319C21.9401 13.7319 20.8257 12.8563 19.5918 12.8961C18.0396 12.9359 16.567 13.8115 15.771 15.2443C14.1391 18.0701 15.373 22.289 16.9252 24.5975C17.7212 25.7119 18.6366 26.9855 19.8704 26.9457C21.0645 26.9059 21.5023 26.1895 22.9351 26.1895C24.3281 26.1895 24.7659 26.9457 25.9998 26.9059C27.2734 26.9059 28.0694 25.7915 28.8256 24.6373C29.741 23.3238 30.0992 22.0502 30.0992 22.0104C30.0992 21.9706 27.6316 21.0552 27.6316 18.2294Z" fill="#484444"/>
<path d="M25.2817 11.3437C25.9185 10.5477 26.3563 9.47306 26.2369 8.35864C25.3215 8.39844 24.1673 8.99545 23.4906 9.79147C22.9334 10.4681 22.3762 11.5825 22.5354 12.6571C23.5702 12.7367 24.6449 12.1397 25.2817 11.3437Z" fill="#484444"/>
<path d="M44.7451 26.7465H43.0735L42.1978 23.9207H39.0536L38.178 26.7465H36.5859L39.6904 17.075H41.6008L44.7451 26.7465ZM41.9192 22.7267L41.0834 20.2192C41.0038 19.9406 40.8446 19.3436 40.6058 18.3884H40.566C40.4864 18.7864 40.3272 19.3834 40.1282 20.2192L39.3322 22.7267H41.9192Z" fill="#484444"/>
<path d="M52.7459 23.2043C52.7459 24.3585 52.4274 25.3137 51.7906 25.9903C51.1936 26.6271 50.4772 26.9057 49.6414 26.9057C48.726 26.9057 48.0494 26.5873 47.6514 25.9107V29.6122H46.0991V22.0898C46.0991 21.3336 46.0593 20.5774 46.0195 19.7814H47.3728L47.4922 20.8958C48.0096 20.06 48.8056 19.662 49.8404 19.662C50.6762 19.662 51.3528 19.9804 51.91 20.6172C52.4673 21.254 52.7459 22.1296 52.7459 23.2043ZM51.1538 23.2441C51.1538 22.5674 50.9946 22.0102 50.716 21.5724C50.3578 21.0948 49.92 20.8958 49.3628 20.8958C48.9648 20.8958 48.6464 21.0152 48.328 21.254C48.0096 21.4928 47.8106 21.851 47.6912 22.249C47.6514 22.448 47.6514 22.6072 47.6514 22.7266V23.8809C47.6514 24.3983 47.8106 24.8361 48.0892 25.1545C48.4076 25.5127 48.8056 25.7117 49.323 25.7117C49.8802 25.7117 50.3578 25.4729 50.6762 25.0351C50.9946 24.5575 51.1538 23.9605 51.1538 23.2441Z" fill="#484444"/>
<path d="M60.7432 23.2044C60.7432 24.3586 60.4248 25.3138 59.7879 25.9904C59.2307 26.6272 58.5143 26.9058 57.6785 26.9058C56.7233 26.9058 56.0865 26.5874 55.6885 25.9108H55.6487V29.6123H54.0964V22.09C54.0964 21.3337 54.0964 20.5775 54.0566 19.7815H55.4099L55.4895 20.8959H55.5293C56.0467 20.0601 56.8029 19.6621 57.8775 19.6621C58.7133 19.6621 59.3899 19.9805 59.9471 20.6173C60.4646 21.2541 60.7432 22.1298 60.7432 23.2044ZM59.1909 23.2442C59.1909 22.5676 59.0317 22.0104 58.7133 21.5725C58.3949 21.0949 57.9571 20.8959 57.3601 20.8959C57.0019 20.8959 56.6437 21.0153 56.3253 21.2541C56.0069 21.4929 55.8079 21.8511 55.7283 22.2492C55.6885 22.4482 55.6487 22.6074 55.6487 22.7268V23.881C55.6487 24.3984 55.8079 24.8362 56.1263 25.1546C56.4447 25.5128 56.8427 25.7118 57.3203 25.7118C57.9173 25.7118 58.3551 25.473 58.6735 25.0352C59.0317 24.5576 59.1909 23.9606 59.1909 23.2442Z" fill="#484444"/>
<path d="M69.7365 24.0403C69.7365 24.8762 69.4181 25.5528 68.8609 26.0702C68.224 26.6274 67.3484 26.906 66.234 26.906C65.1992 26.906 64.3634 26.707 63.7266 26.309L64.0848 24.9956C64.7614 25.4334 65.5176 25.6324 66.3136 25.6324C66.9106 25.6324 67.3484 25.513 67.6668 25.2344C68.025 24.9558 68.1842 24.5976 68.1842 24.1597C68.1842 23.8015 68.025 23.4433 67.7862 23.1647C67.5076 22.9259 67.0698 22.6473 66.433 22.4483C64.7614 21.8115 63.8858 20.8961 63.8858 19.6623C63.8858 18.8662 64.2042 18.2294 64.8012 17.712C65.3982 17.1946 66.1544 16.9558 67.1494 16.9558C68.025 16.9558 68.7813 17.115 69.3385 17.3936L68.9803 18.6672C68.423 18.3886 67.7862 18.2294 67.1096 18.2294C66.5524 18.2294 66.1544 18.3488 65.836 18.6274C65.5972 18.8662 65.438 19.1449 65.438 19.5031C65.438 19.9011 65.5972 20.1797 65.8758 20.4583C66.1544 20.6573 66.632 20.9359 67.3086 21.1747C68.1444 21.5329 68.7415 21.9309 69.1395 22.3687C69.5375 22.8065 69.7365 23.3637 69.7365 24.0403Z" fill="#484444"/>
<path d="M74.8341 20.9357H73.1227V24.3188C73.1227 25.1944 73.4411 25.6322 74.0381 25.6322C74.3167 25.6322 74.5555 25.5924 74.7147 25.5526L74.7545 26.7466C74.4759 26.8262 74.0779 26.9058 73.5605 26.9058C72.9635 26.9058 72.4859 26.7068 72.1277 26.3486C71.8093 25.9506 71.6103 25.3536 71.6103 24.478V20.9357H70.6152V19.7815H71.6103V18.5079L73.1227 18.0701V19.7815H74.8341V20.9357Z" fill="#484444"/>
<path d="M82.5547 23.2043C82.5547 24.2789 82.2363 25.1545 81.6393 25.8709C81.0025 26.5475 80.1269 26.9057 79.092 26.9057C78.0572 26.9057 77.2214 26.5873 76.6244 25.9107C76.0274 25.2341 75.709 24.3585 75.709 23.3237C75.709 22.249 76.0274 21.3734 76.6642 20.6968C77.301 19.9804 78.1368 19.662 79.1716 19.662C80.2065 19.662 81.0423 19.9804 81.6393 20.657C82.2363 21.3336 82.5547 22.1694 82.5547 23.2043ZM80.9229 23.2839C80.9229 22.6072 80.8035 22.0898 80.5249 21.6122C80.2065 21.055 79.7289 20.7764 79.1318 20.7764C78.495 20.7764 78.0572 21.055 77.699 21.6122C77.4204 22.0898 77.301 22.647 77.301 23.2839C77.301 23.9207 77.4204 24.4779 77.699 24.9555C78.0572 25.5127 78.5348 25.7913 79.1318 25.7913C79.7289 25.7913 80.1667 25.5127 80.5249 24.9157C80.8035 24.4779 80.9229 23.9207 80.9229 23.2839Z" fill="#484444"/>
<path d="M87.5687 21.1346C87.4095 21.1346 87.2502 21.0948 87.091 21.0948C86.5338 21.0948 86.1358 21.2938 85.8174 21.7316C85.5786 22.0898 85.4592 22.5276 85.4592 23.0849V26.7465H83.907V21.9704C83.907 21.1744 83.907 20.458 83.8672 19.7814H85.2204L85.2602 21.1346H85.3C85.4592 20.657 85.7378 20.2988 86.0562 20.0202C86.4144 19.7814 86.8124 19.662 87.2104 19.662C87.3299 19.662 87.4493 19.662 87.5687 19.662V21.1346Z" fill="#484444"/>
<path d="M94.4953 22.9259C94.4953 23.2045 94.4953 23.4433 94.4555 23.6423H89.7988C89.8386 24.3189 90.0376 24.8761 90.4754 25.2343C90.8734 25.5527 91.3908 25.7119 91.9878 25.7119C92.7043 25.7119 93.3013 25.5925 93.8983 25.3935L94.1371 26.4682C93.4605 26.7468 92.7043 26.906 91.7888 26.906C90.7142 26.906 89.8386 26.5876 89.2416 25.9508C88.6048 25.3139 88.3262 24.4383 88.3262 23.3637C88.3262 22.3289 88.6048 21.4533 89.162 20.7369C89.759 20.0204 90.5948 19.6224 91.6296 19.6224C92.6247 19.6224 93.3809 20.0204 93.8983 20.7369C94.2963 21.3339 94.4953 22.0901 94.4953 22.9259ZM93.0227 22.5279C93.0625 22.0901 92.9431 21.6921 92.7441 21.3339C92.4654 20.9359 92.0674 20.6971 91.5102 20.6971C90.9928 20.6971 90.5948 20.9359 90.2764 21.3339C89.9978 21.6523 89.8386 22.0901 89.7988 22.5279H93.0227Z" fill="#484444"/>
<path d="M37.5801 8.995H38.7343C40.0477 8.995 40.8437 9.71141 40.8437 11.1442C40.8437 12.5771 40.0477 13.3333 38.7741 13.3333H37.5801V8.995ZM38.6547 12.7363C39.5303 12.7363 40.0477 12.2189 40.0477 11.1442C40.0477 10.0696 39.5303 9.63181 38.6547 9.63181H38.3363V12.7363H38.6547Z" fill="#484444"/>
<path d="M41.5605 9.07477C41.5605 8.83597 41.7596 8.63696 42.0382 8.63696C42.3168 8.63696 42.5158 8.83597 42.5158 9.07477C42.5158 9.31358 42.3168 9.51258 42.0382 9.51258C41.7596 9.51258 41.5605 9.31358 41.5605 9.07477ZM41.6401 10.0698H42.3964V13.3334H41.6401V10.0698Z" fill="#484444"/>
<path d="M43.0723 12.9753L43.4305 12.4977C43.7091 12.6967 43.9877 12.8559 44.3061 12.8559C44.6643 12.8559 44.8235 12.6967 44.8235 12.4579C44.8235 12.1793 44.4653 12.0599 44.1469 11.9405C43.7091 11.7813 43.2315 11.5027 43.2315 10.9853C43.2315 10.428 43.6693 9.99023 44.4255 9.99023C44.8633 9.99023 45.2215 10.1892 45.5001 10.3882L45.1419 10.8659C44.9031 10.7066 44.6643 10.5872 44.4255 10.5872C44.1071 10.5872 43.9479 10.7464 43.9479 10.9455C43.9479 11.1843 44.2663 11.3037 44.6245 11.4231C45.0623 11.5823 45.5399 11.8211 45.5399 12.4181C45.5399 12.9753 45.1021 13.4131 44.3061 13.4131C43.8285 13.4131 43.3907 13.2141 43.0723 12.9753Z" fill="#484444"/>
<path d="M46.2539 10.0698H46.8509L46.9305 10.428C47.2091 10.1892 47.5673 9.99023 47.9255 9.99023C48.7614 9.99023 49.1992 10.6668 49.1992 11.6619C49.1992 12.7763 48.5623 13.4131 47.8061 13.4131C47.5275 13.4131 47.2489 13.2937 46.9703 13.0549L47.0101 13.6121V14.6469H46.2539V10.0698ZM48.4429 11.6619C48.4429 11.0251 48.2041 10.627 47.7265 10.627C47.4877 10.627 47.2489 10.7464 47.0101 10.9853V12.5375C47.2489 12.7365 47.4877 12.7763 47.6469 12.7763C48.0847 12.7763 48.4429 12.4181 48.4429 11.6619Z" fill="#484444"/>
<path d="M49.7617 11.7017C49.7617 10.627 50.5179 9.99023 51.3139 9.99023C52.1498 9.99023 52.8662 10.627 52.8662 11.7017C52.8662 12.8161 52.1498 13.4131 51.3139 13.4131C50.5179 13.4131 49.7617 12.8161 49.7617 11.7017ZM52.11 11.7017C52.11 11.0649 51.7916 10.627 51.3139 10.627C50.8363 10.627 50.5577 11.0649 50.5577 11.7017C50.5577 12.3783 50.8363 12.8161 51.3139 12.8161C51.7916 12.8161 52.11 12.3783 52.11 11.7017Z" fill="#484444"/>
<path d="M53.6211 10.0698H54.2579L54.3375 10.5076C54.6161 10.229 54.9743 9.99023 55.4121 9.99023C56.1285 9.99023 56.4071 10.4678 56.4071 11.3037V13.3335H55.6509V11.3833C55.6509 10.8659 55.4917 10.6668 55.1335 10.6668C54.8549 10.6668 54.6559 10.7862 54.4171 11.0649V13.3335H53.6211V10.0698Z" fill="#484444"/>
<path d="M57.3223 9.15422L58.3173 8L58.8347 8.51741L57.7203 9.55223L57.3223 9.15422ZM57.3621 10.0696H58.1183V13.3333H57.3621V10.0696Z" fill="#484444"/>
<path d="M58.6758 10.0697H59.4718L59.9892 11.7811C60.0688 12.0995 60.1484 12.4179 60.2678 12.7762C60.3474 12.4179 60.4668 12.0995 60.5464 11.7811L61.0638 10.0697H61.82L60.7056 13.3334H59.83L58.6758 10.0697Z" fill="#484444"/>
<path d="M62.0977 11.7017C62.0977 10.6668 62.8539 9.99023 63.6101 9.99023C64.4857 9.99023 64.9633 10.627 64.9633 11.5425C64.9633 11.7017 64.9633 11.8609 64.9235 11.9405H62.8539C62.9335 12.4977 63.2917 12.8161 63.8091 12.8161C64.0877 12.8161 64.3265 12.7365 64.5653 12.5773L64.8439 13.0549C64.5255 13.2937 64.1275 13.4131 63.7295 13.4131C62.8141 13.4131 62.0977 12.7763 62.0977 11.7017ZM64.2867 11.3833C64.2867 10.9057 64.0877 10.5872 63.6499 10.5872C63.2519 10.5872 62.9335 10.8659 62.8539 11.3833H64.2867Z" fill="#484444"/>
<path d="M65.6777 12.4976V8.63696H66.4737V12.5374C66.4737 12.7364 66.5534 12.816 66.633 12.816C66.6728 12.816 66.6728 12.816 66.7524 12.7762L66.832 13.3732C66.7524 13.4131 66.633 13.4131 66.4339 13.4131C65.8767 13.4131 65.6777 13.0548 65.6777 12.4976Z" fill="#484444"/>
<path d="M68.8242 10.0698H69.461L69.5008 10.5076H69.5406C69.8192 10.229 70.1376 9.99023 70.6153 9.99023C71.2919 9.99023 71.6103 10.4678 71.6103 11.3037V13.3335H70.8541V11.3833C70.8541 10.8659 70.6949 10.6668 70.3366 10.6668C70.058 10.6668 69.859 10.7862 69.5804 11.0649V13.3335H68.8242V10.0698Z" fill="#484444"/>
<path d="M72.3652 12.4579C72.3652 11.7813 72.9224 11.4231 74.2757 11.2639C74.2757 10.9057 74.1165 10.627 73.6787 10.627C73.3603 10.627 73.0418 10.7464 72.7632 10.9455L72.4846 10.428C72.8428 10.1892 73.3205 9.99023 73.8379 9.99023C74.6339 9.99023 75.0319 10.5076 75.0319 11.4231V13.3335H74.4349L74.3553 12.9753C74.0369 13.2141 73.7185 13.4131 73.3205 13.4131C72.7632 13.4131 72.3652 13.0549 72.3652 12.4579ZM74.2757 12.4579V11.7415C73.4001 11.8609 73.0816 12.0599 73.0816 12.4181C73.0816 12.6967 73.2807 12.8161 73.5593 12.8161C73.8379 12.8161 74.0369 12.6967 74.2757 12.4579Z" fill="#484444"/>
<rect x="0.75" y="0.75" width="108.5" height="35.5" rx="4.25" stroke="#484444" stroke-width="1.5"/>
</svg>
