<svg width="193" height="202" viewBox="0 0 193 202" fill="none" xmlns="http://www.w3.org/2000/svg">
<path d="M188.186 0L0 36.5116L47.3475 157.666L98.979 148.035L137.591 201.094L142.519 139.915L192.974 130.507L188.186 0Z" fill="#484444"/>
<path d="M179.253 7.72803L9.12695 40.7957L51.8265 149.967L98.5021 141.231L133.362 189.026L137.842 133.895L183.481 125.383L179.253 7.72803Z" fill="white"/>
<path d="M113.243 92.4469C113.322 92.8489 110.949 93.5249 106.125 94.475C101.368 95.4118 98.9562 95.7127 98.8902 95.3777L87.1223 46.2238C87.0167 45.6878 90.0126 44.8194 96.11 43.6186C102.274 42.4047 105.403 42.0322 105.495 42.5012L113.243 92.4469ZM97.8468 101.743C97.7545 101.274 100.79 100.433 106.955 99.2186C113.186 97.9914 116.342 97.5789 116.421 97.9809L119.271 112.454C119.403 113.124 116.353 114.072 110.122 115.3C103.957 116.514 100.836 116.92 100.756 116.518L97.8468 101.743Z" fill="#484444"/>
</svg>
