<svg width="110" height="37" viewBox="0 0 110 37" fill="none" xmlns="http://www.w3.org/2000/svg">
<path d="M55.1742 19.4416C53.4456 19.4416 52.0051 20.7586 52.0051 22.5696C52.0051 24.3805 53.4456 25.6975 55.1742 25.6975C56.9028 25.6975 58.3022 24.3805 58.3022 22.5696C58.3022 20.7586 56.9028 19.4416 55.1742 19.4416ZM55.1742 24.4628C54.2276 24.4628 53.4045 23.6808 53.4045 22.5696C53.4045 21.4583 54.2276 20.6763 55.1742 20.6763C56.1208 20.6763 56.944 21.4583 56.944 22.5696C56.944 23.6808 56.1208 24.4628 55.1742 24.4628ZM48.3009 19.4416C46.5723 19.4416 45.1318 20.7586 45.1318 22.5696C45.1318 24.3805 46.5723 25.6975 48.3009 25.6975C50.0295 25.6975 51.4289 24.3805 51.4289 22.5696C51.4289 20.7586 50.0295 19.4416 48.3009 19.4416ZM48.3009 24.4628C47.3543 24.4628 46.5312 23.6808 46.5312 22.5696C46.5312 21.4583 47.3543 20.6763 48.3009 20.6763C49.2476 20.6763 50.0707 21.4583 50.0707 22.5696C50.0707 23.6808 49.2476 24.4628 48.3009 24.4628ZM40.1518 20.3882V21.7464H43.3209C43.2386 22.4872 42.9916 23.0223 42.5801 23.3927C42.1273 23.8866 41.3865 24.3805 40.1518 24.3805C38.1762 24.3805 36.6534 22.8165 36.6534 20.8409C36.6534 18.9065 38.1762 17.3014 40.1518 17.3014C41.1807 17.3014 41.9627 17.713 42.5389 18.248L43.4855 17.3014C42.6624 16.5606 41.6334 15.9844 40.1518 15.9844C37.4354 15.9844 35.2129 18.1657 35.2129 20.8409C35.2129 23.5162 37.4354 25.6975 40.1518 25.6975C41.5923 25.6975 42.6624 25.2448 43.5267 24.3393C44.391 23.475 44.6791 22.2403 44.6791 21.2525C44.6791 20.9233 44.6379 20.6352 44.5968 20.3882H40.1518ZM73.5304 21.4583C73.2423 20.7586 72.4603 19.4416 70.814 19.4416C69.2089 19.4416 67.8918 20.7175 67.8918 22.5696C67.8918 24.3393 69.2089 25.6975 70.9787 25.6975C72.4192 25.6975 73.2423 24.8332 73.6127 24.3393L72.5426 23.5985C72.1722 24.1335 71.6783 24.4628 70.9787 24.4628C70.279 24.4628 69.7851 24.1747 69.4558 23.5162L73.6539 21.7876L73.5304 21.4583ZM69.25 22.4872C69.2089 21.2525 70.1967 20.6352 70.8963 20.6352C71.4314 20.6352 71.8841 20.9233 72.0487 21.3348L69.25 22.4872ZM65.834 25.5329H67.2333V16.3136H65.834V25.5329ZM63.5703 20.1413H63.5292C63.2411 19.7709 62.6237 19.4416 61.8829 19.4416C60.3189 19.4416 58.8784 20.8409 58.8784 22.5696C58.8784 24.3393 60.3189 25.6975 61.8829 25.6975C62.6237 25.6975 63.2411 25.3683 63.5292 24.9978H63.5703V25.4506C63.5703 26.6441 62.953 27.3027 61.924 27.3027C61.0597 27.3027 60.5247 26.6853 60.3189 26.1914L59.1253 26.6853C59.4546 27.5084 60.4012 28.5374 61.924 28.5374C63.5292 28.5374 64.8874 27.5908 64.8874 25.2448V19.6474H63.5703V20.1413ZM62.0063 24.4628C61.0597 24.4628 60.2777 23.6808 60.2777 22.5696C60.2777 21.4995 61.0597 20.6763 62.0063 20.6763C62.953 20.6763 63.6938 21.4995 63.6938 22.5696C63.6938 23.6808 62.953 24.4628 62.0063 24.4628ZM79.951 16.3136H76.6584V25.5329H78.0577V22.0345H79.951C81.4738 22.0345 82.9966 20.9233 82.9966 19.1535C82.9966 17.4249 81.4738 16.3136 79.951 16.3136ZM79.9921 20.7586H78.0577V17.5895H79.9921C81.0211 17.5895 81.5973 18.4538 81.5973 19.1535C81.5973 19.8943 81.0211 20.7586 79.9921 20.7586ZM88.5117 19.4416C87.4828 19.4416 86.4538 19.8532 86.0423 20.8409L87.277 21.3348C87.5239 20.8409 88.0178 20.6763 88.5117 20.6763C89.2114 20.6763 89.9522 21.0879 89.9522 21.8699V21.9522C89.7053 21.8287 89.1702 21.5818 88.5528 21.5818C87.2358 21.5818 85.8776 22.3226 85.8776 23.6808C85.8776 24.9155 86.9477 25.6975 88.1824 25.6975C89.0879 25.6975 89.5818 25.2859 89.911 24.7921H89.9522V25.4917H91.3104V21.9934C91.3104 20.3471 90.0757 19.4416 88.5117 19.4416ZM88.3471 24.4628C87.8943 24.4628 87.2358 24.257 87.2358 23.6808C87.2358 22.9811 88.0178 22.693 88.7175 22.693C89.3348 22.693 89.5818 22.8577 89.9522 23.0223C89.8699 23.8866 89.1291 24.4628 88.3471 24.4628ZM96.1258 19.6474L94.5618 23.6396H94.5207L92.8744 19.6474H91.3927L93.821 25.2036L92.4628 28.3316H93.8622L97.6486 19.6474H96.1258ZM83.7374 25.5329H85.1368V16.3136H83.7374V25.5329Z" fill="#484444"/>
<path d="M36.6152 9.02881H37.7676C39.1258 9.02881 39.949 9.72848 39.949 11.2101C39.949 12.6507 39.1258 13.4326 37.8088 13.4326H36.6152V9.02881ZM37.7265 12.7741C38.6319 12.7741 39.1258 12.2802 39.1258 11.2101C39.1258 10.0989 38.6319 9.64617 37.7265 9.64617H37.3972V12.7741H37.7265Z" fill="#484444"/>
<path d="M40.6484 9.07002C40.6484 8.82308 40.8542 8.65845 41.1423 8.65845C41.4304 8.65845 41.6362 8.82308 41.6362 9.07002C41.6362 9.35812 41.4304 9.52275 41.1423 9.52275C40.8542 9.52275 40.6484 9.35812 40.6484 9.07002ZM40.7719 10.099H41.5539V13.4327H40.7719V10.099Z" fill="#484444"/>
<path d="M42.1699 13.0211L42.5403 12.5272C42.8284 12.7741 43.1165 12.8976 43.4458 12.8976C43.8162 12.8976 43.9808 12.733 43.9808 12.5272C43.9808 12.2391 43.6516 12.1156 43.2812 11.9922C42.8696 11.8275 42.3346 11.5806 42.3346 11.0044C42.3346 10.4282 42.8284 10.0166 43.5693 10.0166C44.022 10.0166 44.3924 10.2224 44.6805 10.4282L44.3101 10.8809C44.0632 10.7163 43.8574 10.5928 43.5693 10.5928C43.24 10.5928 43.0754 10.7574 43.0754 10.9632C43.0754 11.2513 43.4046 11.3336 43.7751 11.4571C44.2278 11.6217 44.7217 11.8687 44.7217 12.486C44.7217 13.0622 44.2689 13.515 43.4458 13.515C42.9931 13.515 42.4992 13.3092 42.1699 13.0211Z" fill="#484444"/>
<path d="M45.4219 10.0989H46.0804L46.1216 10.4693H46.1627C46.4097 10.2224 46.7801 10.0166 47.1505 10.0166C47.9736 10.0166 48.4264 10.6751 48.4264 11.7041C48.4264 12.8565 47.7678 13.515 47.027 13.515C46.7389 13.515 46.4508 13.3503 46.1627 13.1446L46.2039 13.6796V14.7497H45.4219V10.0989ZM47.6444 11.7041C47.6444 11.0455 47.4386 10.6751 46.9447 10.6751C46.6978 10.6751 46.4508 10.7986 46.2039 11.0455V12.5684C46.4508 12.7741 46.6566 12.8565 46.8624 12.8565C47.3151 12.8565 47.6444 12.486 47.6444 11.7041Z" fill="#484444"/>
<path d="M49.0039 11.7864C49.0039 10.6751 49.7447 10.0166 50.609 10.0166C51.4322 10.0166 52.173 10.6751 52.173 11.7864C52.173 12.8565 51.4322 13.515 50.609 13.515C49.7447 13.515 49.0039 12.8565 49.0039 11.7864ZM51.3499 11.7864C51.3499 11.0867 51.0618 10.6751 50.609 10.6751C50.1152 10.6751 49.8271 11.0867 49.8271 11.7864C49.8271 12.4449 50.1152 12.8565 50.609 12.8565C51.0618 12.8565 51.3499 12.4449 51.3499 11.7864Z" fill="#484444"/>
<path d="M52.9141 10.0989H53.5726L53.6137 10.5516H53.6549C53.943 10.2635 54.2723 10.0166 54.725 10.0166C55.4658 10.0166 55.7539 10.5105 55.7539 11.3336V13.4327H54.9719V11.4571C54.9719 10.8809 54.8073 10.6751 54.478 10.6751C54.1899 10.6751 53.9842 10.8397 53.6961 11.0867V13.4327H52.9141V10.0989Z" fill="#484444"/>
<path d="M56.6992 9.19344L57.687 7.99988L58.222 8.49377L57.0696 9.56386L56.6992 9.19344ZM56.6992 10.0989H57.4812V13.4327H56.6992V10.0989Z" fill="#484444"/>
<path d="M58.0586 10.0989H58.8406L59.3756 11.8275C59.4579 12.1567 59.5403 12.486 59.6637 12.8153C59.7872 12.486 59.8695 12.1567 59.9518 11.8275L60.4869 10.0989H61.2277L60.1165 13.4326H59.211L58.0586 10.0989Z" fill="#484444"/>
<path d="M61.5547 11.7864C61.5547 10.6751 62.2955 10.0166 63.0775 10.0166C63.983 10.0166 64.4357 10.6751 64.4357 11.5806C64.4357 11.7452 64.4357 11.9098 64.3945 11.9922H62.2955C62.3778 12.5684 62.7483 12.8976 63.2833 12.8976C63.5714 12.8976 63.8183 12.8153 64.0653 12.6507L64.3122 13.1446C63.983 13.3503 63.6126 13.515 63.201 13.515C62.2544 13.515 61.5547 12.8565 61.5547 11.7864ZM63.7772 11.4571C63.7772 10.9221 63.5302 10.634 63.0775 10.634C62.7071 10.634 62.3778 10.9221 62.2955 11.4571H63.7772Z" fill="#484444"/>
<path d="M65.1797 12.5684V8.65845H65.9617V12.6096C65.9617 12.8153 66.044 12.8565 66.1263 12.8565C66.1675 12.8565 66.2086 12.8565 66.2498 12.8565L66.3321 13.4327C66.2498 13.4739 66.1263 13.515 65.9205 13.515C65.3855 13.515 65.1797 13.1446 65.1797 12.5684Z" fill="#484444"/>
<path d="M68.3477 10.0989H69.0062L69.0473 10.5516H69.0885C69.3766 10.2635 69.7058 10.0166 70.1586 10.0166C70.8583 10.0166 71.1875 10.5105 71.1875 11.3336V13.4327H70.4055V11.4571C70.4055 10.8809 70.2409 10.6751 69.9116 10.6751C69.5824 10.6751 69.4177 10.8397 69.1296 11.0867V13.4327H68.3477V10.0989Z" fill="#484444"/>
<path d="M71.9688 12.5272C71.9688 11.8275 72.545 11.4571 73.9031 11.2925C73.9031 10.9632 73.7385 10.634 73.2858 10.634C72.9565 10.634 72.6684 10.7986 72.3803 10.9632L72.0922 10.4693C72.4626 10.2224 72.9154 10.0166 73.4504 10.0166C74.2736 10.0166 74.6851 10.5516 74.6851 11.4571V13.4327H74.0266L73.9855 13.0622H73.9443C73.6562 13.3092 73.3269 13.515 72.9154 13.515C72.3392 13.515 71.9688 13.1034 71.9688 12.5272ZM73.9031 12.5272V11.7864C72.9977 11.9098 72.7096 12.1568 72.7096 12.486C72.7096 12.7741 72.9154 12.8976 73.2035 12.8976C73.4504 12.8976 73.6562 12.7741 73.9031 12.5272Z" fill="#484444"/>
<path d="M22.4895 17.4068L14.7727 9.66902L24.5909 15.3054L22.4895 17.4068ZM12.7587 9.21448C12.3042 9.45224 12 9.8858 12 10.4487V25.8788C12 26.4417 12.3042 26.8753 12.7587 27.113L21.7307 18.162L12.7587 9.21448ZM27.6258 17.1026L25.5664 15.9103L23.2692 18.1655L25.5664 20.4207L27.6678 19.2284C28.2971 18.7284 28.2971 17.6026 27.6258 17.1026ZM14.7727 26.662L24.5909 21.0256L22.4895 18.9242L14.7727 26.662Z" fill="#484444"/>
<rect x="0.75" y="0.75" width="108.5" height="35.5" rx="4.25" stroke="#484444" stroke-width="1.5"/>
</svg>
