<svg width="18" height="15" viewBox="0 0 18 15" fill="none" xmlns="http://www.w3.org/2000/svg">
<path fill-rule="evenodd" clip-rule="evenodd" d="M4.99894 2.20641C6.08553 2.0759 5.85091 2.84283 5.64562 3.01146C5.38166 3.22702 4.04431 2.94254 3.33898 4.36201C2.95771 5.13187 3.25246 5.46034 2.91079 5.72869C2.6967 5.89586 2.42248 5.81228 2.2861 5.6627C1.9415 5.28291 2.40195 4.04087 2.72896 3.57602C3.17181 2.94401 3.88741 2.33985 4.99894 2.20641ZM12.2605 0.968774C10.0096 1.1858 9.55356 2.50995 9.10337 2.57741C8.7661 2.62727 8.63559 2.36918 8.49775 2.22841C6.785 0.48193 3.74663 0.421808 1.89898 2.6038C0.941421 3.73439 0.642276 5.54686 1.26109 7.03818C1.80806 8.35794 2.89466 9.04568 4.04871 9.94751L7.24545 12.48C7.65751 12.8011 8.45523 13.5783 8.967 13.5974C9.28227 13.6091 9.4773 13.5035 9.6694 13.3598L10.7179 12.5137C12.0963 11.4007 13.6272 10.2511 14.9792 9.14539C15.7461 8.51631 16.2476 8.17317 16.7213 7.09391C17.1422 6.13488 17.1905 4.93391 16.8357 3.90743C16.2579 2.2416 14.5672 0.744415 12.2605 0.968774Z" fill="#F37778"/>
<path fill-rule="evenodd" clip-rule="evenodd" d="M12.2605 0.968808C14.5672 0.74445 16.2579 2.24164 16.8357 3.90746C17.1905 4.93394 17.1422 6.13492 16.7213 7.09394C16.2477 8.17321 15.7462 8.51634 14.9792 9.14543C13.6272 10.2511 12.0963 11.4007 10.7179 12.5137L9.66941 13.3598C9.47731 13.5036 9.28228 13.6091 8.96701 13.5974C8.45523 13.5783 7.65752 12.8011 7.24546 12.48L4.04872 9.94754C2.89466 9.04571 1.80807 8.35797 1.2611 7.03822C0.642281 5.54689 0.941426 3.73443 1.89898 2.60384C3.74664 0.421843 6.78501 0.481965 8.49776 2.22844C8.6356 2.36922 8.76611 2.6273 9.10338 2.57744C9.55356 2.50999 10.0096 1.18583 12.2605 0.968808ZM0 5.1363V5.59382C0 6.87691 0.645214 8.11015 1.24057 8.81695L1.7846 9.36392C1.88285 9.4651 1.97377 9.52962 2.08961 9.62054L6.15299 12.8349C6.44187 13.0607 7.80855 14.1678 8.05198 14.3115C8.32179 14.4699 8.6576 14.5579 9.03593 14.5579C9.88644 14.5579 10.5111 13.8526 11.1754 13.3584L16.1773 9.39471C16.3855 9.22754 16.5615 9.03105 16.7301 8.82282C17.6525 7.67903 18 6.71561 18 5.1363C18 4.15822 17.5513 2.97337 17.0102 2.25777C16.4588 1.52897 15.7374 0.842698 14.8766 0.490764C14.576 0.367586 14.2622 0.225346 13.9132 0.152026C12.3896 -0.164715 10.998 0.0273828 9.71047 0.889623C9.3468 1.13158 9.17377 1.32808 9.00073 1.44392C8.91128 1.38526 8.62534 1.11105 8.31153 0.902821C6.69556 -0.167648 4.92122 -0.257098 3.14835 0.480499C2.52367 0.740051 1.68782 1.37353 1.29483 1.86184C0.564562 2.76808 0 3.86347 0 5.1363Z" fill="#454B54"/>
</svg>
