<svg width="51" height="51" viewBox="0 0 51 51" fill="none" xmlns="http://www.w3.org/2000/svg">
<path d="M25.5 49C38.4787 49 49 38.4787 49 25.5C49 12.5213 38.4787 2 25.5 2C12.5213 2 2 12.5213 2 25.5C2 38.4787 12.5213 49 25.5 49Z" fill="#FED15C" stroke="#484444" stroke-width="2.21176"/>
<path d="M23.6471 16.8529C23.6471 15.8296 24.4766 15 25.5 15V15C26.5234 15 27.3529 15.8296 27.3529 16.8529V34.1471C27.3529 35.1704 26.5234 36 25.5 36V36C24.4766 36 23.6471 35.1704 23.6471 34.1471V16.8529Z" fill="#484444"/>
<path d="M16.8529 27.3529C15.8296 27.3529 15 26.5234 15 25.5V25.5C15 24.4766 15.8296 23.6471 16.8529 23.6471H34.1471C35.1704 23.6471 36 24.4766 36 25.5V25.5C36 26.5234 35.1704 27.3529 34.1471 27.3529H16.8529Z" fill="#484444"/>
</svg>
