<svg width="22" height="21" viewBox="0 0 22 21" fill="none" xmlns="http://www.w3.org/2000/svg">
<path fill-rule="evenodd" clip-rule="evenodd" d="M11.3242 0C17.1233 0 21.8242 4.70096 21.8242 10.5C21.8242 16.299 17.1233 21 11.3242 21C5.52517 21 0.824219 16.299 0.824219 10.5C0.824219 4.70096 5.52517 0 11.3242 0ZM15.8814 13.1591C15.8814 14.2062 15.0305 15.0571 13.9833 15.0571H8.66514C7.61649 15.0571 6.76558 14.2062 6.76558 13.1591V7.84092C6.76558 6.79227 7.61649 5.94136 8.66514 5.94136H13.9833C15.0305 5.94136 15.8814 6.79227 15.8814 7.84092V13.1591ZM14.1736 4.99308H8.47488C7.00827 4.99308 5.8158 6.18255 5.8158 7.65066V13.3478C5.8158 14.816 7.00827 16.0069 8.47488 16.0069H14.1736C15.6417 16.0069 16.8311 14.816 16.8311 13.3478V7.65066C16.8311 6.18255 15.6417 4.99308 14.1736 4.99308ZM11.3302 12.3981C10.2831 12.3981 9.43065 11.5457 9.43065 10.5C9.43065 9.45285 10.2831 8.60044 11.3302 8.60044C12.3759 8.60044 13.2283 9.45285 13.2283 10.5C13.2283 11.5457 12.3759 12.3981 11.3302 12.3981ZM11.3302 7.65066C9.75723 7.65066 8.48087 8.92702 8.48087 10.5C8.48087 12.073 9.75723 13.3478 11.3302 13.3478C12.9017 13.3478 14.178 12.073 14.178 10.5C14.178 8.92702 12.9017 7.65066 11.3302 7.65066ZM14.3893 6.93009C14.7039 6.93009 14.9585 7.18476 14.9585 7.49936C14.9585 7.81395 14.7039 8.06863 14.3893 8.06863C14.0747 8.06863 13.82 7.81395 13.82 7.49936C13.82 7.18476 14.0747 6.93009 14.3893 6.93009Z" fill="white"/>
</svg>
