<svg width="115" height="136" viewBox="0 0 115 136" fill="none" xmlns="http://www.w3.org/2000/svg">
<path fill-rule="evenodd" clip-rule="evenodd" d="M57.111 127.235C55.5848 126.421 54.0285 125.267 52.5927 124.313C43.4859 118.278 31.9191 107.967 25.2722 99.5727C23.1034 96.8316 20.8142 94.0102 18.9767 90.998C16.1754 86.4094 13.3138 81.4293 11.5166 76.1379C10.8338 74.1097 10.3117 72.5936 9.77955 70.4449C7.76139 62.4024 7.29952 54.641 9.2474 46.4278C9.62894 44.7811 10.0105 43.1646 10.5527 41.6283C13.2737 33.9272 16.8682 28.3848 22.2399 22.511C23.6557 20.9648 28.6659 17.069 30.7042 15.824C38.7567 10.8941 47.1105 8.11281 56.8399 7.95216C59.1793 7.912 65.6455 8.73533 67.7841 9.2474C71.5293 10.1209 73.7984 10.9443 76.9914 12.2596C82.4735 14.4986 87.3934 18.294 91.7109 22.2399C92.3736 22.8524 92.4137 23.1737 93.0362 23.8464C93.5985 24.4589 94.0905 24.8204 94.6026 25.463C101.892 34.5096 106.25 45.1426 106.25 57.111C106.25 65.766 103.94 73.4269 100.597 81.2084C97.7955 87.7047 93.4981 93.9399 89.0702 99.4221C84.1202 105.567 79.2003 110.155 73.3767 115.346C70.2943 118.088 60.3641 125.518 57.111 127.235ZM57.5226 136H56.6089C55.2133 135.819 53.7273 134.815 51.0565 133.028C48.0744 131.03 43.9778 128.319 41.2568 126.09C35.3329 121.25 33.4754 119.935 27.9631 114.413C18.5952 105.055 12.8319 97.8959 6.7272 85.7066C1.94788 76.1479 0 67.3423 0 55.2535C0 43.7871 4.74921 31.1962 11.8379 22.1998C17.5008 15.0207 24.2882 9.22732 32.9031 5.28136C41.6986 1.24504 48.1447 0 58.9685 0C67.8644 0 78.2063 3.07243 85.8472 7.65094C108.8 21.3865 119.373 47.8334 111.943 73.9591C108.248 86.9516 101.681 97.1027 93.1567 107.234C89.3915 111.712 82.835 117.786 78.4272 121.722L72.6739 126.321C70.9971 127.566 69.5814 128.58 67.9247 129.815C66.3282 131.02 64.6816 132.014 63.0048 133.128C60.3842 134.875 58.8881 135.829 57.5226 136Z" fill="#FED15C"/>
<path fill-rule="evenodd" clip-rule="evenodd" d="M27.1002 57.372C27.1002 30.9954 59.3807 17.2699 78.2972 36.1864C85.5867 43.4758 88.5487 53.8377 86.3197 63.9988C85.4662 67.8645 83.94 71.1377 81.7612 74.3206L78.2972 78.5577C70.9877 85.8472 60.6559 88.8192 50.4847 86.5802C46.6191 85.7267 43.3459 84.2005 40.163 82.0318C39.41 81.5096 38.7372 81.0277 38.0545 80.4152C32.9036 75.7965 29.6304 71.3084 27.9536 64.2197C27.552 62.5229 27.1002 59.2697 27.1002 57.372ZM19.1279 55.7856C19.1279 62.7136 19.7404 67.6436 22.6622 73.4872C26.9797 82.102 32.2209 87.3934 40.8156 91.731C54.8323 98.7996 72.8251 95.456 84.0103 84.2708C87.2233 81.0478 89.3017 77.9653 91.4705 73.6679C98.6294 59.4504 95.0249 41.4978 84.0103 30.4833C77.6044 24.0874 68.0458 19.3884 58.708 19.3884C51.8101 19.3884 46.8099 20.021 40.9964 22.9328L35.2732 26.2361C32.01 28.425 28.285 32.13 26.0861 35.3731L22.7526 41.0761C20.9352 44.6807 19.1279 50.4942 19.1279 55.7856Z" fill="#FED15C"/>
<path fill-rule="evenodd" clip-rule="evenodd" d="M50.4742 64.019C50.4742 60.9164 53.9382 57.111 57.111 57.111C60.9867 57.111 65.1837 62.4024 63.2258 66.1375C61.8803 68.6979 50.4742 70.0735 50.4742 64.019ZM42.502 62.9547C42.502 66.9006 43.1446 70.7763 46.3676 73.166C50.6549 76.3488 53.4161 76.2384 58.7075 76.2384C65.6054 76.2384 71.7201 71.7402 71.7201 65.0732C71.7201 60.4144 70.696 56.9805 67.4027 53.7173C63.6776 50.0224 61.2277 49.1388 56.0467 49.1388C49.5605 49.1388 42.502 56.7195 42.502 62.9547Z" fill="#FED15C"/>
<path fill-rule="evenodd" clip-rule="evenodd" d="M46.749 39.8411C46.749 46.5181 54.7213 44.9317 54.7213 40.9054C54.7213 34.2284 46.749 35.8148 46.749 39.8411Z" fill="#FED15C"/>
<path fill-rule="evenodd" clip-rule="evenodd" d="M59.501 39.8411C59.501 46.5181 67.4732 44.9317 67.4732 40.9054C67.4732 34.2284 59.501 35.8148 59.501 39.8411Z" fill="#FED15C"/>
<path fill-rule="evenodd" clip-rule="evenodd" d="M36.126 48.3455C36.126 55.0125 44.0982 53.4261 44.0982 49.4098C44.0982 42.7328 36.126 44.3192 36.126 48.3455Z" fill="#FED15C"/>
<path fill-rule="evenodd" clip-rule="evenodd" d="M70.124 48.3455C70.124 55.0125 78.0963 53.4261 78.0963 49.4098C78.0963 42.7328 70.124 44.3192 70.124 48.3455Z" fill="#FED15C"/>
</svg>
