<svg width="48" height="57" viewBox="0 0 48 57" fill="none" xmlns="http://www.w3.org/2000/svg">
<path fill-rule="evenodd" clip-rule="evenodd" d="M23.9362 53.3262C23.2966 52.9854 22.6443 52.5014 22.0425 52.1017C18.2257 49.5725 13.3779 45.2507 10.592 41.7327C9.68306 40.5838 8.72359 39.4013 7.95349 38.1389C6.7794 36.2157 5.58007 34.1285 4.8268 31.9107C4.54064 31.0607 4.32182 30.4253 4.09878 29.5247C3.25293 26.1539 3.05936 22.901 3.87575 19.4587C4.03566 18.7685 4.19557 18.091 4.42281 17.4472C5.56323 14.2195 7.06977 11.8966 9.32115 9.43477C9.91451 8.78671 12.0144 7.15393 12.8687 6.63212C16.2436 4.56589 19.7448 3.40022 23.8226 3.33289C24.8031 3.31606 27.5132 3.66113 28.4095 3.87575C29.9792 4.24186 30.9302 4.58693 32.2684 5.13821C34.5661 6.07663 36.6281 7.66733 38.4376 9.32115C38.7154 9.57785 38.7322 9.71251 38.9931 9.99446C39.2288 10.2512 39.435 10.4027 39.6496 10.672C42.7048 14.4636 44.5311 18.92 44.5311 23.9362C44.5311 27.5637 43.5632 30.7745 42.1619 34.0359C40.9878 36.7586 39.1867 39.3719 37.3309 41.6695C35.2563 44.245 33.1942 46.1681 30.7535 48.3437C29.4616 49.4926 25.2997 52.6066 23.9362 53.3262ZM24.1087 57H23.7258C23.1409 56.9243 22.518 56.5034 21.3987 55.7544C20.1488 54.9169 18.4319 53.7807 17.2915 52.8465C14.8086 50.8182 14.0301 50.2669 11.7198 47.9524C7.79358 44.0303 5.37807 41.0299 2.81949 35.9212C0.81639 31.915 0 28.2244 0 23.1577C0 18.3519 1.99048 13.0749 4.96146 9.30432C7.33488 6.29546 10.1796 3.86733 13.7903 2.21351C17.4766 0.521816 20.1783 0 24.7147 0C28.4432 0 32.7776 1.28771 35.9801 3.20664C45.6 8.96346 50.0312 20.0478 46.9172 30.9976C45.3685 36.443 42.6164 40.6975 39.0436 44.9435C37.4656 46.8204 34.7176 49.3663 32.8702 51.0159L30.4589 52.9433C29.7561 53.4651 29.1628 53.8901 28.4684 54.4078C27.7993 54.9127 27.1092 55.3293 26.4064 55.7965C25.3081 56.5287 24.6811 56.9285 24.1087 57Z" fill="#FED15C"/>
<path fill-rule="evenodd" clip-rule="evenodd" d="M11.3589 24.0456C11.3589 12.9906 24.8882 7.23805 32.8165 15.1663C35.8716 18.2214 37.113 22.5643 36.1788 26.823C35.8211 28.4431 35.1815 29.815 34.2683 31.149L32.8165 32.9249C29.7529 35.98 25.4227 37.2256 21.1598 36.2872C19.5396 35.9295 18.1677 35.2899 16.8337 34.3809C16.5181 34.1621 16.2362 33.9601 15.95 33.7034C13.7912 31.7676 12.4193 29.8866 11.7166 26.9156C11.5483 26.2044 11.3589 24.8409 11.3589 24.0456ZM8.01758 23.3807C8.01758 26.2843 8.27428 28.3506 9.49886 30.7997C11.3084 34.4104 13.5051 36.6281 17.1073 38.446C22.9819 41.4086 30.523 40.0073 35.2109 35.3193C36.5576 33.9685 37.4286 32.6766 38.3376 30.8755C41.3381 24.9167 39.8273 17.3924 35.2109 12.776C32.5261 10.0954 28.5199 8.12598 24.6063 8.12598C21.7153 8.12598 19.6196 8.39109 17.183 9.61147L14.7844 10.996C13.4167 11.9134 11.8555 13.4662 10.9339 14.8254L9.53674 17.2157C8.77505 18.7264 8.01758 21.163 8.01758 23.3807Z" fill="#FED15C"/>
<path fill-rule="evenodd" clip-rule="evenodd" d="M21.1558 26.8315C21.1558 25.5312 22.6076 23.9363 23.9374 23.9363C25.5617 23.9363 27.3208 26.154 26.5002 27.7194C25.9363 28.7925 21.1558 29.3691 21.1558 26.8315ZM17.8145 26.3854C17.8145 28.0393 18.0838 29.6636 19.4346 30.6652C21.2315 31.9992 22.3888 31.9529 24.6065 31.9529C27.4975 31.9529 30.0603 30.0676 30.0603 27.2734C30.0603 25.3208 29.6311 23.8816 28.2508 22.5139C26.6895 20.9653 25.6627 20.595 23.4913 20.595C20.7728 20.595 17.8145 23.7722 17.8145 26.3854Z" fill="#FED15C"/>
<path fill-rule="evenodd" clip-rule="evenodd" d="M19.5938 16.698C19.5938 19.4964 22.9351 18.8315 22.9351 17.144C22.9351 14.3456 19.5938 15.0105 19.5938 16.698Z" fill="#FED15C"/>
<path fill-rule="evenodd" clip-rule="evenodd" d="M24.9375 16.698C24.9375 19.4964 28.2788 18.8315 28.2788 17.144C28.2788 14.3456 24.9375 15.0105 24.9375 16.698Z" fill="#FED15C"/>
<path fill-rule="evenodd" clip-rule="evenodd" d="M15.1406 20.2624C15.1406 23.0567 18.4819 22.3918 18.4819 20.7085C18.4819 17.9101 15.1406 18.5749 15.1406 20.2624Z" fill="#FED15C"/>
<path fill-rule="evenodd" clip-rule="evenodd" d="M29.3887 20.2624C29.3887 23.0567 32.73 22.3918 32.73 20.7085C32.73 17.9101 29.3887 18.5749 29.3887 20.2624Z" fill="#FED15C"/>
</svg>
