<svg width="16" height="13" viewBox="0 0 16 13" fill="none" xmlns="http://www.w3.org/2000/svg">
<path d="M3.41711 3.17362C3.68878 4.69497 4.82979 5.78164 5.94364 5.59147C7.05748 5.37414 7.73665 3.96146 7.43781 2.44011C7.16615 0.918767 6.0523 -0.167909 4.93846 0.0222596C3.82462 0.239595 3.14545 1.65227 3.41711 3.17362Z" fill="#FED15C"/>
<path d="M8.47022 2.4399C8.19855 3.96125 8.87772 5.37393 9.99156 5.59126C11.1054 5.78143 12.2464 4.69476 12.5181 3.17341C12.7898 1.65206 12.1106 0.239386 10.9967 0.0220513C9.88289 -0.168117 8.76905 0.891392 8.47022 2.4399Z" fill="#FED15C"/>
<path d="M12.8169 5.99892C12.3279 7.05843 12.5724 8.22661 13.3331 8.55261C14.1209 8.90578 15.1261 8.33527 15.6151 7.27577C16.1041 6.18909 15.8596 5.04808 15.099 4.69491C14.3111 4.34174 13.2788 4.91225 12.8169 5.99892Z" fill="#FED15C"/>
<path d="M3.06379 5.9171C3.60713 6.94944 3.41696 8.11762 2.68346 8.49795C1.92279 8.90546 0.863276 8.38929 0.319939 7.35694C-0.223399 6.29744 -0.0603978 5.15643 0.700275 4.74892C1.46095 4.34142 2.52046 4.88476 3.06379 5.9171Z" fill="#FED15C"/>
<path d="M12.9799 11.0789C13.8493 13.4424 10.0459 12.2199 8.06271 12.2199C6.24253 12.2199 2.3305 13.4424 3.1455 11.0789C4.09634 8.38936 5.34602 6.51485 8.06271 6.51485C10.7794 6.51485 11.8661 8.22636 12.9799 11.0789Z" fill="#FED15C"/>
</svg>
