<svg width="19" height="17" viewBox="0 0 19 17" fill="none" xmlns="http://www.w3.org/2000/svg">
<path fill-rule="evenodd" clip-rule="evenodd" d="M1.9036 4.63268C2.1866 4.56436 3.61212 3.95592 3.79375 3.77446C4.03661 3.52681 4.44421 2.27791 4.64061 1.86374C5.09256 1.87442 6.05769 2.09004 6.54132 2.09004C6.98693 2.09004 7.92038 1.1998 8.43991 0.847545C10.292 2.10072 9.56977 2.19465 11.2445 1.98757C11.5571 1.94914 11.9625 1.87015 12.2392 1.86374C13.0586 3.58659 12.5708 3.6549 13.9794 4.22705C14.2751 4.34874 14.6784 4.56223 14.9783 4.63268C14.9783 5.39696 14.8094 5.85596 14.8094 6.66508C14.8094 7.14329 15.9836 8.23207 15.9836 8.52882C15.9836 8.71028 14.8094 9.92503 14.8094 10.3371C14.8094 11.2209 14.9783 11.6201 14.9783 12.3695C14.7988 12.4122 14.6932 12.4847 14.4989 12.5637C14.1357 12.7089 13.3015 13.027 13.0945 13.2341C12.8411 13.4881 12.4567 14.7221 12.2392 15.1363C11.8802 15.1363 11.4557 15.053 11.0903 14.9996C10.1189 14.8566 10.0576 14.8993 9.21497 15.5803C8.97422 15.7767 8.71234 16.0073 8.43991 16.1525L7.69863 15.6038C6.79263 14.9164 6.91301 14.848 5.8465 14.9996C5.4727 15.053 4.99752 15.1363 4.64061 15.1363C3.76207 13.2853 4.3534 13.4177 2.89408 12.7815L1.9036 12.3695C1.9036 11.6692 2.07044 11.2508 2.07044 10.3371C2.07044 9.94211 1.11587 8.94299 0.898342 8.52882C0.868775 8.2641 2.07044 7.23509 2.07044 6.55193C2.07044 5.84101 1.9036 5.34145 1.9036 4.63268ZM8.29419 0H8.5265C8.88763 0.0491021 9.22342 0.309557 9.51486 0.552932C10.8622 1.67801 10.2392 1.0162 12.2392 1.0162C13.2909 1.0162 13.367 2.8223 13.7429 3.16815C14.1568 3.54816 15.8717 3.64209 15.8717 4.68818C15.8717 6.84868 15.0987 5.80259 16.4693 7.64071C17.0311 8.39432 17.0226 8.63556 16.4292 9.43187C16.0575 9.93357 15.6415 10.3029 15.6753 10.6402C15.9097 12.9651 16.2814 12.8007 14.0597 13.6995C13.669 13.8575 13.745 13.802 13.6309 14.0581C13.0586 15.3626 13.1072 16.1396 11.7936 15.9838C11.519 15.9518 10.6743 15.7917 10.4568 15.8151C10.0745 15.86 9.06714 17 8.60886 17C7.9225 17 8.00486 16.9381 7.29949 16.4044C6.82009 16.0414 6.6617 15.7895 6.33013 15.8173C5.37978 15.9027 4.34917 16.2998 3.91412 15.5888C3.7494 15.3177 3.56989 14.8331 3.43684 14.4915C3.38404 14.3549 3.37137 14.3335 3.32068 14.214C3.28478 14.1307 3.23832 13.9898 3.20453 13.9343C3.13061 13.8105 3.14751 13.8318 2.98489 13.7614C2.88986 13.7208 2.82439 13.7016 2.74414 13.6675C2.01553 13.3472 1.01027 13.1316 1.01027 12.3118C1.01027 11.048 1.4939 10.8046 0.987041 10.1342C0.780076 9.86098 0.619572 9.61974 0.408383 9.36356C-0.248416 8.56725 -0.0245552 8.22994 0.459068 7.57667C1.41787 6.2808 1.25314 6.82733 1.13065 5.80686C0.999712 4.70526 0.754733 4.16087 1.88882 3.71255C2.081 3.63569 3.05458 3.2386 3.13695 3.16815C3.289 3.03366 3.7494 1.58621 3.98382 1.31295C4.49278 0.721587 5.60997 1.18699 6.54132 1.18699L7.84858 0.192139C8.00064 0.0789903 8.14847 0.0213487 8.29419 0Z" fill="#FFA600"/>
<path fill-rule="evenodd" clip-rule="evenodd" d="M2.85156 8.47333C2.85156 10.8003 4.19261 12.647 6.01729 13.5735C6.56216 13.8532 7.87998 14.4979 7.87998 13.4988C7.87998 12.9736 6.59806 13.3536 5.10073 11.8464C2.77553 9.51087 3.55693 5.45461 6.52203 4.16302C7.47027 3.75098 8.41006 3.63143 9.43011 3.85346C10.2601 4.03492 11.0964 4.4619 11.6941 5.0682C12.0953 5.47596 12.3952 5.85597 12.6676 6.40036C13.0689 7.20948 12.976 7.96309 13.4659 7.96309C14.4902 7.96309 13.4427 6.01395 13.2822 5.72147C12.9717 5.16427 12.6338 4.76078 12.1967 4.33381C12.0277 4.16942 11.7004 3.92604 11.5019 3.79582C9.25904 2.31421 6.32985 2.63872 4.42915 4.58786C3.50625 5.5336 2.85156 7.09633 2.85156 8.47333Z" fill="#FFA600"/>
<path fill-rule="evenodd" clip-rule="evenodd" d="M7.9944 5.93064C7.46643 5.97547 6.87721 6.58605 6.87721 7.39943C6.87721 8.44979 8.2246 8.77002 8.82437 8.98778C9.81063 9.34217 9.38403 10.2794 8.60896 10.2794C7.27425 10.2794 7.63116 9.60262 7.04405 9.60262C6.7864 9.60262 6.63857 9.76701 6.62167 10.0125C6.59633 10.3626 7.41152 11.0778 7.9944 11.1269C7.9944 11.6201 8.00285 12.0044 8.44846 12.0172C8.61319 12.0214 8.77158 11.8784 8.83493 11.7503C8.9173 11.5816 8.88773 11.3767 8.88773 11.1269C10.2182 11.0138 10.742 9.26318 9.7515 8.50103C9.25942 8.12315 8.70188 8.08046 8.15913 7.79652C7.14964 7.27134 8.16969 6.12491 9.43682 7.12617C10.1696 7.70472 10.8138 6.32773 8.88773 5.87513C8.88773 5.69794 8.91307 5.49512 8.86661 5.33074C8.76947 4.98916 8.52237 5.02759 8.32808 5.02759C7.97962 5.02759 7.9944 5.55704 7.9944 5.93064Z" fill="#FFA600"/>
<path fill-rule="evenodd" clip-rule="evenodd" d="M9 13.6119C9 14.4189 10.2524 13.8532 10.6367 13.6845C12.0453 13.0697 13.0992 11.951 13.6546 10.5228C14.2882 8.89172 13.4814 8.94936 13.2365 9.13723C12.9408 9.36139 12.8732 11.5774 10.6198 12.7089C9.50474 13.2682 9 13.059 9 13.6119Z" fill="#FFA600"/>
<path fill-rule="evenodd" clip-rule="evenodd" d="M16.6504 3.50122C16.6504 3.85133 16.9482 3.95381 17.1699 3.91325C17.36 3.87909 17.5733 3.71257 17.8436 3.57807C18.0844 3.45638 18.6715 3.24076 18.4286 2.7839C18.1562 2.27793 17.605 2.69423 17.2417 2.91413C16.9714 3.07638 16.6504 3.11053 16.6504 3.50122Z" fill="#FFA600"/>
<path fill-rule="evenodd" clip-rule="evenodd" d="M17.102 5.8175C17.102 6.17829 17.064 6.31706 17.6912 6.40886C18.6078 6.54336 19.0006 6.64583 19.0006 5.98615C19.0006 5.5357 17.5497 5.49513 17.4948 5.49727C17.3449 5.50581 17.102 5.62109 17.102 5.8175Z" fill="#FFA600"/>
<path fill-rule="evenodd" clip-rule="evenodd" d="M14.9199 1.69509C14.9199 2.03667 15.0276 2.14769 15.3676 2.14769C15.7288 2.14769 15.7668 1.84026 15.9062 1.56273C15.9864 1.40048 16.7319 0.339447 15.8133 0.339447C15.4521 0.339447 15.4141 0.646869 15.2747 0.924402C15.1691 1.13362 14.9199 1.45385 14.9199 1.69509Z" fill="#FFA600"/>
</svg>
