<svg width="19" height="19" viewBox="0 0 19 19" fill="none" xmlns="http://www.w3.org/2000/svg">
<path fill-rule="evenodd" clip-rule="evenodd" d="M1 9.16757C1 10.6593 1.17463 11.8754 1.77426 13.0746C1.89208 13.3124 1.99938 13.5396 2.12772 13.7521C2.71473 14.7283 2.66423 14.5179 3.21126 15.2249C3.81089 16.0012 5.00594 16.7629 5.88119 17.2026C6.65545 17.5939 8.03775 18 9.20124 18H9.79876C10.9454 18 12.3256 17.6045 13.0978 17.2152C13.5817 16.9712 13.9772 16.765 14.4001 16.4578C15.7088 15.5131 16.4809 14.5516 17.2047 13.1188C17.5939 12.3467 18 10.958 18 9.79876C18 7.91151 17.7265 6.82166 16.8828 5.27104C16.6429 4.8271 16.4599 4.62933 16.2074 4.25272C16.7229 4.25272 17.0385 4.33478 17.0385 3.88874C17.0385 3.72463 16.9038 3.58998 16.7397 3.58998H15.41C15.2312 3.58998 15.1113 3.75408 15.1113 3.9203V5.18267C15.1113 5.38465 15.2606 5.5151 15.4774 5.5151C15.7803 5.5151 15.8098 5.1953 15.8098 4.88391C16.5041 5.68342 16.9838 7.04047 17.19 8.05248C17.5203 9.67042 17.2678 11.1958 16.6535 12.6686C16.3505 13.3965 15.8203 14.1792 15.2859 14.7536C14.8377 15.2354 14.5453 15.511 13.9835 15.9087C11.9406 17.3499 9.36955 17.7054 6.99839 16.9165C6.72908 16.8281 6.52921 16.7334 6.28515 16.6345C5.82017 16.4452 5.16584 16.0412 4.76609 15.7277C4.14332 15.2417 3.77723 14.8672 3.287 14.2528C2.26869 12.98 1.66485 11.1558 1.66485 9.5C1.66485 7.83156 2.26027 6.05582 3.27228 4.76609L3.96238 3.96238C5.40149 2.52748 7.45285 1.66275 9.5 1.66275C10.167 1.66275 10.8276 1.93416 10.8276 1.36399C10.8276 1.14517 10.6382 1.06312 10.4552 1.03998C10.3184 1.02104 10.1796 1.00842 10.0386 1H9.05817C7.68849 1.08416 6.27463 1.50705 5.2479 2.12562C3.62574 3.10396 2.6474 4.19381 1.80792 5.85804C1.41448 6.63861 1 8.0125 1 9.16757Z" stroke="#FFA600" stroke-width="0.210396"/>
<path fill-rule="evenodd" clip-rule="evenodd" d="M1 9.16757C1 10.6593 1.17463 11.8754 1.77426 13.0746C1.89208 13.3124 1.99938 13.5396 2.12772 13.7521C2.71473 14.7283 2.66423 14.5179 3.21126 15.2249C3.81089 16.0012 5.00594 16.7629 5.88119 17.2026C6.65545 17.5939 8.03775 18 9.20124 18H9.79876C10.9454 18 12.3256 17.6045 13.0978 17.2152C13.5817 16.9712 13.9772 16.765 14.4001 16.4578C15.7088 15.5131 16.4809 14.5516 17.2047 13.1188C17.5939 12.3467 18 10.958 18 9.79876C18 7.91151 17.7265 6.82166 16.8828 5.27104C16.6429 4.8271 16.4599 4.62933 16.2074 4.25272C16.7229 4.25272 17.0385 4.33478 17.0385 3.88874C17.0385 3.72463 16.9038 3.58998 16.7397 3.58998H15.41C15.2312 3.58998 15.1113 3.75408 15.1113 3.9203V5.18267C15.1113 5.38465 15.2606 5.5151 15.4774 5.5151C15.7803 5.5151 15.8098 5.1953 15.8098 4.88391C16.5041 5.68342 16.9838 7.04047 17.19 8.05248C17.5203 9.67042 17.2678 11.1958 16.6535 12.6686C16.3505 13.3965 15.8203 14.1792 15.2859 14.7536C14.8377 15.2354 14.5453 15.511 13.9835 15.9087C11.9406 17.3499 9.36955 17.7054 6.99839 16.9165C6.72908 16.8281 6.52921 16.7334 6.28515 16.6345C5.82017 16.4452 5.16584 16.0412 4.76609 15.7277C4.14332 15.2417 3.77723 14.8672 3.287 14.2528C2.26869 12.98 1.66485 11.1558 1.66485 9.5C1.66485 7.83156 2.26027 6.05582 3.27228 4.76609L3.96238 3.96238C5.40149 2.52748 7.45285 1.66275 9.5 1.66275C10.167 1.66275 10.8276 1.93416 10.8276 1.36399C10.8276 1.14517 10.6382 1.06312 10.4552 1.03998C10.3184 1.02104 10.1796 1.00842 10.0386 1H9.05817C7.68849 1.08416 6.27463 1.50705 5.2479 2.12562C3.62574 3.10396 2.6474 4.19381 1.80792 5.85804C1.41448 6.63861 1 8.0125 1 9.16757Z" fill="#FFA600"/>
<path fill-rule="evenodd" clip-rule="evenodd" d="M6.28033 4.75134C6.49493 4.75134 6.78949 4.50939 6.99988 4.40629C8.85137 3.50369 10.9595 3.66991 12.649 4.79132C12.7984 4.8902 12.9204 4.98067 13.0551 5.08166C13.6821 5.55716 14.2375 6.3209 14.5826 7.00889C15.0959 8.03562 15.1464 8.63105 15.1464 9.79874C15.1464 10.8507 14.6688 11.989 14.1302 12.7674C13.8314 13.2008 13.5474 13.4786 13.1624 13.8236C12.3566 14.5453 10.9322 15.1449 9.80026 15.1449C8.71461 15.1449 8.0161 15.086 7.05669 14.6021C6.73268 14.438 6.49283 14.3117 6.21511 14.114C6.09939 14.034 5.95211 13.9225 5.8406 13.8236C5.67228 13.6742 5.45347 13.4954 5.31882 13.3187C5.2578 13.2408 5.22625 13.2177 5.16102 13.1419C4.41201 12.2604 3.85657 10.9223 3.85657 9.69775C3.85657 8.37015 3.97228 8.01038 4.44147 6.9626C4.57191 6.66805 4.94431 6.27251 4.64134 6.02634C4.26053 5.71706 4.00805 6.30617 3.87971 6.56706C3.3432 7.64218 3.16016 8.37857 3.16016 9.69775C3.16016 10.8886 3.68615 12.3067 4.31733 13.1567C4.37414 13.2345 4.4078 13.2913 4.46882 13.3713C4.52773 13.4512 4.58454 13.508 4.64976 13.588L5.86164 14.6989C6.02996 14.8104 6.15199 14.8924 6.32872 14.9976C6.49914 15.0986 6.67587 15.1765 6.85681 15.2669C8.62204 16.1506 10.9848 15.9718 12.6553 15.0103L13.9934 13.9898L14.7025 13.1398C15.4557 11.9974 15.8449 10.9475 15.8449 9.39899C15.8449 8.26075 15.4936 7.21087 15.0244 6.36718C14.8477 6.04949 14.6246 5.74652 14.4037 5.46248L14.0271 5.04169C13.722 4.73872 13.5306 4.59355 13.196 4.34317C11.5171 3.08501 9.12488 2.8178 7.15768 3.60258C6.87996 3.71409 5.98578 4.05072 5.96263 4.39367C5.95211 4.55778 6.08887 4.75134 6.28033 4.75134Z" stroke="#FFA600" stroke-width="0.210396"/>
<path fill-rule="evenodd" clip-rule="evenodd" d="M6.28033 4.75134C6.49493 4.75134 6.78949 4.50939 6.99988 4.40629C8.85137 3.50369 10.9595 3.66991 12.649 4.79132C12.7984 4.8902 12.9204 4.98067 13.0551 5.08166C13.6821 5.55716 14.2375 6.3209 14.5826 7.00889C15.0959 8.03562 15.1464 8.63105 15.1464 9.79874C15.1464 10.8507 14.6688 11.989 14.1302 12.7674C13.8314 13.2008 13.5474 13.4786 13.1624 13.8236C12.3566 14.5453 10.9322 15.1449 9.80026 15.1449C8.71461 15.1449 8.0161 15.086 7.05669 14.6021C6.73268 14.438 6.49283 14.3117 6.21511 14.114C6.09939 14.034 5.95211 13.9225 5.8406 13.8236C5.67228 13.6742 5.45347 13.4954 5.31882 13.3187C5.2578 13.2408 5.22625 13.2177 5.16102 13.1419C4.41201 12.2604 3.85657 10.9223 3.85657 9.69775C3.85657 8.37015 3.97228 8.01038 4.44147 6.9626C4.57191 6.66805 4.94431 6.27251 4.64134 6.02634C4.26053 5.71706 4.00805 6.30617 3.87971 6.56706C3.3432 7.64218 3.16016 8.37857 3.16016 9.69775C3.16016 10.8886 3.68615 12.3067 4.31733 13.1567C4.37414 13.2345 4.4078 13.2913 4.46882 13.3713C4.52773 13.4512 4.58454 13.508 4.64976 13.588L5.86164 14.6989C6.02996 14.8104 6.15199 14.8924 6.32872 14.9976C6.49914 15.0986 6.67587 15.1765 6.85681 15.2669C8.62204 16.1506 10.9848 15.9718 12.6553 15.0103L13.9934 13.9898L14.7025 13.1398C15.4557 11.9974 15.8449 10.9475 15.8449 9.39899C15.8449 8.26075 15.4936 7.21087 15.0244 6.36718C14.8477 6.04949 14.6246 5.74652 14.4037 5.46248L14.0271 5.04169C13.722 4.73872 13.5306 4.59355 13.196 4.34317C11.5171 3.08501 9.12488 2.8178 7.15768 3.60258C6.87996 3.71409 5.98578 4.05072 5.96263 4.39367C5.95211 4.55778 6.08887 4.75134 6.28033 4.75134Z" fill="#FFA600"/>
<path fill-rule="evenodd" clip-rule="evenodd" d="M9.03625 9.50005C9.03625 8.88359 9.96621 8.88359 9.96621 9.50005C9.96621 10.1165 9.03625 10.1165 9.03625 9.50005ZM10.0335 8.47121C9.86732 8.43124 9.73056 8.33656 9.50123 8.33656C9.274 8.33656 9.13514 8.43124 8.97103 8.47121C8.61336 8.23136 7.90432 7.27406 7.64133 7.27406C7.38254 7.27406 7.27734 7.38136 7.27734 7.64015C7.27734 7.81057 7.43724 7.91576 7.53403 8.01465C7.73601 8.21453 8.38192 8.83309 8.47239 8.96775C8.40507 9.2602 8.12103 9.7399 8.69121 10.3101C9.49913 11.118 10.6647 10.3963 10.6647 9.50005C10.6647 9.27072 10.57 9.13396 10.5301 8.96775C10.6353 8.81205 10.9656 8.5175 11.1213 8.3618L12.3332 7.14992C12.4594 7.02369 12.8886 6.66391 12.8886 6.47876C12.8886 6.27047 12.7308 6.11267 12.5225 6.11267C12.3247 6.11267 11.439 7.08049 11.2538 7.26564L10.0335 8.47121Z" stroke="#FFA600" stroke-width="0.210396"/>
<path fill-rule="evenodd" clip-rule="evenodd" d="M9.03625 9.50005C9.03625 8.88359 9.96621 8.88359 9.96621 9.50005C9.96621 10.1165 9.03625 10.1165 9.03625 9.50005ZM10.0335 8.47121C9.86732 8.43124 9.73056 8.33656 9.50123 8.33656C9.274 8.33656 9.13514 8.43124 8.97103 8.47121C8.61336 8.23136 7.90432 7.27406 7.64133 7.27406C7.38254 7.27406 7.27734 7.38136 7.27734 7.64015C7.27734 7.81057 7.43724 7.91576 7.53403 8.01465C7.73601 8.21453 8.38192 8.83309 8.47239 8.96775C8.40507 9.2602 8.12103 9.7399 8.69121 10.3101C9.49913 11.118 10.6647 10.3963 10.6647 9.50005C10.6647 9.27072 10.57 9.13396 10.5301 8.96775C10.6353 8.81205 10.9656 8.5175 11.1213 8.3618L12.3332 7.14992C12.4594 7.02369 12.8886 6.66391 12.8886 6.47876C12.8886 6.27047 12.7308 6.11267 12.5225 6.11267C12.3247 6.11267 11.439 7.08049 11.2538 7.26564L10.0335 8.47121Z" fill="#FFA600"/>
<path fill-rule="evenodd" clip-rule="evenodd" d="M13.4844 9.46634C13.4844 9.91238 13.8147 9.83243 14.2481 9.83243C14.671 9.83243 14.65 9.16758 14.2481 9.16758C13.9409 9.16758 13.4844 9.08973 13.4844 9.46634Z" stroke="#FFA600" stroke-width="0.210396"/>
<path fill-rule="evenodd" clip-rule="evenodd" d="M13.4844 9.46634C13.4844 9.91238 13.8147 9.83243 14.2481 9.83243C14.671 9.83243 14.65 9.16758 14.2481 9.16758C13.9409 9.16758 13.4844 9.08973 13.4844 9.46634Z" fill="#FFA600"/>
<path fill-rule="evenodd" clip-rule="evenodd" d="M4.74996 9.8324C5.196 9.8324 5.5137 9.89973 5.5137 9.46631C5.5137 9.0897 5.05924 9.16755 4.74996 9.16755C4.32706 9.16755 4.35021 9.8324 4.74996 9.8324Z" stroke="#FFA600" stroke-width="0.210396"/>
<path fill-rule="evenodd" clip-rule="evenodd" d="M4.74996 9.8324C5.196 9.8324 5.5137 9.89973 5.5137 9.46631C5.5137 9.0897 5.05924 9.16755 4.74996 9.16755C4.32706 9.16755 4.35021 9.8324 4.74996 9.8324Z" fill="#FFA600"/>
<path fill-rule="evenodd" clip-rule="evenodd" d="M9.16768 4.75137C9.16768 5.18479 9.08773 5.51511 9.53377 5.51511C9.91037 5.51511 9.83253 5.05855 9.83253 4.75137C9.83253 4.33058 9.16768 4.36425 9.16768 4.75137Z" stroke="#FFA600" stroke-width="0.210396"/>
<path fill-rule="evenodd" clip-rule="evenodd" d="M9.16768 4.75137C9.16768 5.18479 9.08773 5.51511 9.53377 5.51511C9.91037 5.51511 9.83253 5.05855 9.83253 4.75137C9.83253 4.33058 9.16768 4.36425 9.16768 4.75137Z" fill="#FFA600"/>
<path fill-rule="evenodd" clip-rule="evenodd" d="M9.16617 13.7837C9.16617 14.2613 9.09674 14.5474 9.53226 14.5474C9.90045 14.5474 9.83102 14.1161 9.83102 13.8489C9.83102 13.3187 9.16617 13.4155 9.16617 13.7837Z" stroke="#FFA600" stroke-width="0.210396"/>
<path fill-rule="evenodd" clip-rule="evenodd" d="M9.16617 13.7837C9.16617 14.2613 9.09674 14.5474 9.53226 14.5474C9.90045 14.5474 9.83102 14.1161 9.83102 13.8489C9.83102 13.3187 9.16617 13.4155 9.16617 13.7837Z" fill="#FFA600"/>
<path fill-rule="evenodd" clip-rule="evenodd" d="M4.91602 5.18269C4.91602 5.74445 5.58087 5.69606 5.58087 5.21635C5.58087 4.78083 4.91602 4.86499 4.91602 5.18269Z" stroke="#FFA600" stroke-width="0.210396"/>
<path fill-rule="evenodd" clip-rule="evenodd" d="M4.91602 5.18269C4.91602 5.74445 5.58087 5.69606 5.58087 5.21635C5.58087 4.78083 4.91602 4.86499 4.91602 5.18269Z" fill="#FFA600"/>
<path fill-rule="evenodd" clip-rule="evenodd" d="M11.459 1.66275C11.459 2.0604 12.1238 2.1677 12.1238 1.62908C12.1238 1.23564 11.459 1.2104 11.459 1.66275Z" stroke="#FFA600" stroke-width="0.210396"/>
<path fill-rule="evenodd" clip-rule="evenodd" d="M11.459 1.66275C11.459 2.0604 12.1238 2.1677 12.1238 1.62908C12.1238 1.23564 11.459 1.2104 11.459 1.66275Z" fill="#FFA600"/>
</svg>
