<svg width="21" height="21" viewBox="0 0 21 21" fill="none" xmlns="http://www.w3.org/2000/svg">
<path d="M21 10.5C21 16.299 16.299 21 10.5 21C4.70096 21 0 16.299 0 10.5C0 4.70096 4.70096 0 10.5 0C16.299 0 21 4.70096 21 10.5ZM12.5808 13.2055V8.00271C12.5808 8.00271 13.1666 8.98095 15.2878 9.03938C15.4002 9.04387 15.4946 8.95099 15.4946 8.83714V7.36603C15.4946 7.25667 15.4062 7.17128 15.2968 7.16379C13.6534 7.07091 12.8715 5.81103 12.795 4.65302C12.7876 4.54665 12.6947 4.46426 12.5868 4.46426H10.9105C10.7981 4.46426 10.7082 4.55564 10.7082 4.6665V12.9374C10.7082 13.8362 10.0206 14.6182 9.12327 14.6602C8.09859 14.7081 7.26416 13.8287 7.3915 12.7876C7.47988 12.0535 8.07012 11.4513 8.80418 11.3494C8.94949 11.3284 9.09181 11.3269 9.22963 11.3419C9.35098 11.3569 9.45884 11.2655 9.45884 11.1427V9.66857C9.45884 9.5637 9.37944 9.47382 9.27458 9.46633C9.06485 9.45285 8.84912 9.45734 8.6304 9.48281C7.01248 9.66557 5.70616 10.9749 5.52789 12.5928C5.2912 14.7276 6.95556 16.5342 9.04237 16.5342C10.9974 16.5342 12.5808 14.9508 12.5808 12.9973V13.2055Z" fill="white"/>
</svg>
