<svg width="22" height="21" viewBox="0 0 22 21" fill="none" xmlns="http://www.w3.org/2000/svg">
<path d="M21.1567 10.5C21.1567 16.299 16.4572 21 10.6582 21C4.85916 21 0.158203 16.299 0.158203 10.5C0.158203 4.70096 4.85916 0 10.6582 0C16.4572 0 21.1567 4.70096 21.1567 10.5ZM12.1113 10.891L9.59457 12.1479C9.30544 12.2932 8.96238 12.082 8.96238 11.7584V9.24162C8.96238 8.91803 9.30544 8.70681 9.59457 8.85212L12.1113 10.1105C12.4334 10.2693 12.4334 10.7292 12.1113 10.891ZM15.1824 6.05072H6.13252C5.23817 6.05072 4.5131 6.77579 4.5131 7.67014V13.3299C4.5131 14.2242 5.23817 14.9478 6.13252 14.9478H15.1824C16.0767 14.9478 16.8018 14.2242 16.8018 13.3299V7.67014C16.8018 6.77579 16.0767 6.05072 15.1824 6.05072Z" fill="white"/>
</svg>
