<svg width="917" height="30" viewBox="0 0 917 30" fill="none" xmlns="http://www.w3.org/2000/svg">
<path d="M414 1.64527e-07V16.9038C414 16.9038 420.56 23.9339 421.848 24.9267C424.762 27.182 428.401 29.9876 435.693 29.9876C442.978 29.9876 446.617 27.182 449.531 24.9267C450.819 23.9339 452.035 22.9951 453.462 22.3477C454.948 21.6679 456.574 21.3549 458.587 21.3549C460.601 21.3549 462.226 21.6679 463.712 22.3477C465.132 22.9951 466.355 23.9339 467.636 24.9267C470.558 27.182 474.189 29.9876 481.481 29.9876C481.532 29.9876 481.569 29.9876 481.613 29.9876C488.905 29.9876 492.544 27.182 495.458 24.9267C496.746 23.9339 497.961 22.9951 499.389 22.3477C500.868 21.6679 502.501 21.3549 504.514 21.3549C506.527 21.3549 508.153 21.6679 509.639 22.3477C511.059 22.9951 512.282 23.9339 513.563 24.9267C516.485 27.182 520.116 29.9876 527.408 29.9876C534.7 29.9876 538.339 27.182 541.253 24.9267C542.541 23.9339 543.757 22.9951 545.184 22.3477C546.663 21.6679 548.296 21.3549 550.309 21.3549C552.323 21.3549 553.948 21.6679 555.434 22.3477C556.855 22.9951 558.07 23.9339 559.358 24.9267C562.28 27.182 565.911 29.9876 573.203 29.9876C573.232 29.9876 573.254 29.9876 573.284 29.9876C573.306 29.9876 573.328 29.9876 573.357 29.9822C573.379 29.9822 573.394 29.9822 573.415 29.9822C580.612 29.9498 584.222 27.1658 587.128 24.9267C588.417 23.9339 589.632 22.9951 591.053 22.3477C592.539 21.6679 594.164 21.3549 596.178 21.3549C598.191 21.3549 599.824 21.6679 601.303 22.3477C602.73 22.9951 603.946 23.9339 605.234 24.9267C608.148 27.182 611.787 29.9876 619.079 29.9876C626.371 29.9876 630.002 27.182 632.916 24.9267C634.205 23.9339 635.427 22.9951 636.848 22.3477C638.334 21.6679 639.959 21.3549 641.973 21.3549C643.986 21.3549 645.611 21.6679 647.098 22.3477C648.518 22.9951 649.741 23.9339 651.029 24.9267C653.943 27.182 657.582 29.9876 664.867 29.9876C664.918 29.9876 664.962 29.9876 665.006 29.9876C672.298 29.9876 675.929 27.182 678.843 24.9267C680.132 23.9339 681.354 22.9951 682.775 22.3477C684.261 21.6679 685.886 21.3549 687.9 21.3549C689.913 21.3549 691.538 21.6679 693.025 22.3477C694.445 22.9951 695.668 23.9339 696.956 24.9267C699.87 27.182 703.502 29.9876 710.794 29.9876C718.086 29.9876 721.724 27.182 724.638 24.9267C725.927 23.9339 727.142 22.9951 728.57 22.3477C730.049 21.6679 731.682 21.3549 733.695 21.3549C735.708 21.3549 737.334 21.6679 738.82 22.3477C740.24 22.9951 741.463 23.9339 742.744 24.9267C745.665 27.182 749.297 29.9876 756.589 29.9876C756.611 29.9876 756.625 29.9876 756.647 29.9876C756.662 29.9876 756.677 29.9876 756.699 29.9876C756.728 29.9822 756.765 29.9822 756.801 29.9822C763.983 29.9444 767.593 27.1658 770.492 24.9267C771.781 23.9339 772.996 22.9951 774.416 22.3477C775.903 21.6679 777.528 21.3549 779.541 21.3549C781.555 21.3549 783.187 21.6679 784.666 22.3477C786.094 22.9951 787.309 23.9339 788.598 24.9267C791.512 27.182 795.15 29.9876 802.443 29.9876C809.735 29.9876 813.366 27.182 816.28 24.9267C817.568 23.9339 818.791 22.9951 820.212 22.3477C821.698 21.6679 823.323 21.3549 825.336 21.3549C827.35 21.3549 828.975 21.6679 830.461 22.3477C831.882 22.9951 833.104 23.9339 834.393 24.9267C837.307 27.182 840.946 29.9876 848.23 29.9876C848.282 29.9876 848.326 29.9876 848.369 29.9876C855.662 29.9876 859.293 27.182 862.207 24.9267C863.495 23.9339 864.718 22.9951 866.138 22.3477C867.625 21.6679 869.25 21.3549 871.263 21.3549C873.277 21.3549 874.902 21.6679 876.388 22.3477C877.809 22.9951 879.031 23.9339 880.32 24.9267C883.234 27.182 886.88 29.7016 894.157 29.9876C906.501 30.4678 917 16.8768 917 16.8768V1.64527e-07L414 1.64527e-07Z" fill="#2F4B7C"/>
<path d="M-7.73743e-06 1.64527e-07V16.9038C-7.73743e-06 16.9038 6.55994 23.9339 7.8485 24.9267C10.7624 27.182 14.4011 29.9876 21.6932 29.9876C28.978 29.9876 32.6167 27.182 35.5306 24.9267C36.8192 23.9339 38.0345 22.9951 39.4622 22.3477C40.9484 21.6679 42.5738 21.3549 44.5871 21.3549C46.6005 21.3549 48.2258 21.6679 49.7121 22.3477C51.1324 22.9951 52.3551 23.9339 53.6363 24.9267C56.5576 27.182 60.189 29.9876 67.481 29.9876C67.5323 29.9876 67.5689 29.9876 67.6128 29.9876C74.9049 29.9876 78.5436 27.182 81.4575 24.9267C82.7461 23.9339 83.9615 22.9951 85.3891 22.3477C86.868 21.6679 88.5007 21.3549 90.5141 21.3549C92.5275 21.3549 94.1528 21.6679 95.639 22.3477C97.0594 22.9951 98.282 23.9339 99.5633 24.9267C102.485 27.182 106.116 29.9876 113.408 29.9876C120.7 29.9876 124.339 27.182 127.253 24.9267C128.541 23.9339 129.757 22.9951 131.184 22.3477C132.663 21.6679 134.296 21.3549 136.309 21.3549C138.323 21.3549 139.948 21.6679 141.434 22.3477C142.855 22.9951 144.07 23.9339 145.358 24.9267C148.28 27.182 151.911 29.9876 159.203 29.9876C159.232 29.9876 159.254 29.9876 159.284 29.9876C159.306 29.9876 159.328 29.9876 159.357 29.9822C159.379 29.9822 159.394 29.9822 159.415 29.9822C166.612 29.9498 170.222 27.1658 173.128 24.9267C174.417 23.9339 175.632 22.9951 177.053 22.3477C178.539 21.6679 180.164 21.3549 182.178 21.3549C184.191 21.3549 185.824 21.6679 187.303 22.3477C188.73 22.9951 189.946 23.9339 191.234 24.9267C194.148 27.182 197.787 29.9876 205.079 29.9876C212.371 29.9876 216.002 27.182 218.916 24.9267C220.205 23.9339 221.427 22.9951 222.848 22.3477C224.334 21.6679 225.959 21.3549 227.973 21.3549C229.986 21.3549 231.611 21.6679 233.098 22.3477C234.518 22.9951 235.741 23.9339 237.029 24.9267C239.943 27.182 243.582 29.9876 250.867 29.9876C250.918 29.9876 250.962 29.9876 251.006 29.9876C258.298 29.9876 261.929 27.182 264.843 24.9267C266.132 23.9339 267.354 22.9951 268.775 22.3477C270.261 21.6679 271.886 21.3549 273.9 21.3549C275.913 21.3549 277.538 21.6679 279.025 22.3477C280.445 22.9951 281.668 23.9339 282.956 24.9267C285.87 27.182 289.502 29.9876 296.794 29.9876C304.086 29.9876 307.724 27.182 310.638 24.9267C311.927 23.9339 313.142 22.9951 314.57 22.3477C316.049 21.6679 317.682 21.3549 319.695 21.3549C321.708 21.3549 323.334 21.6679 324.82 22.3477C326.24 22.9951 327.463 23.9339 328.744 24.9267C331.665 27.182 335.297 29.9876 342.589 29.9876C342.611 29.9876 342.625 29.9876 342.647 29.9876C342.662 29.9876 342.677 29.9876 342.699 29.9876C342.728 29.9822 342.765 29.9822 342.801 29.9822C349.983 29.9444 353.593 27.1658 356.492 24.9267C357.781 23.9339 358.996 22.9951 360.416 22.3477C361.903 21.6679 363.528 21.3549 365.541 21.3549C367.555 21.3549 369.187 21.6679 370.666 22.3477C372.094 22.9951 373.309 23.9339 374.598 24.9267C377.512 27.182 381.15 29.9876 388.443 29.9876C395.735 29.9876 399.366 27.182 402.28 24.9267C403.568 23.9339 404.791 22.9951 406.212 22.3477C407.698 21.6679 409.323 21.3549 411.336 21.3549C413.35 21.3549 414.975 21.6679 416.461 22.3477C417.882 22.9951 419.104 23.9339 420.393 24.9267C423.307 27.182 426.946 29.9876 434.23 29.9876C434.282 29.9876 434.326 29.9876 434.369 29.9876C441.662 29.9876 445.293 27.182 448.207 24.9267C449.495 23.9339 450.718 22.9951 452.138 22.3477C453.625 21.6679 455.25 21.3549 457.263 21.3549C459.277 21.3549 460.902 21.6679 462.388 22.3477C463.809 22.9951 465.031 23.9339 466.32 24.9267C469.234 27.182 472.88 29.7016 480.157 29.9876C492.501 30.4678 503 16.8768 503 16.8768V1.64527e-07L-7.73743e-06 1.64527e-07Z" fill="#2F4B7C"/>
</svg>
