<svg width="673" height="43" viewBox="0 0 673 43" fill="none" xmlns="http://www.w3.org/2000/svg">
<path d="M-32.1336 1.72896L-56 25.5968V43.1785L701.125 43.1784V5.07709C701.125 2.30129 697.769 0.911139 695.806 2.87395L677.257 21.4229C674.952 23.728 671.215 23.728 668.909 21.4229L649.215 1.72887C646.91 -0.576248 643.173 -0.576248 640.868 1.72887L621.174 21.4229C618.869 23.728 615.131 23.728 612.826 21.4229L593.132 1.72887C590.827 -0.576248 587.09 -0.576248 584.784 1.72887L565.09 21.4229C562.785 23.728 559.048 23.728 556.743 21.4229L537.049 1.72892C534.744 -0.576248 531.006 -0.576248 528.701 1.72892L509.007 21.4229C506.702 23.7281 502.965 23.7281 500.659 21.4229L480.965 1.72892C478.66 -0.576248 474.923 -0.576248 472.618 1.72892L452.924 21.4229C450.619 23.7281 446.881 23.7281 444.576 21.4229L424.882 1.72892C422.577 -0.576248 418.84 -0.576248 416.534 1.72892L396.841 21.4229C394.535 23.7281 390.798 23.7281 388.493 21.4229L368.799 1.72892C366.494 -0.576248 362.756 -0.576248 360.451 1.72892L340.757 21.4229C338.452 23.7281 334.715 23.7281 332.409 21.4229L312.716 1.72892C310.41 -0.576202 306.673 -0.576202 304.368 1.72892L284.674 21.4229C282.369 23.7281 278.631 23.7281 276.326 21.4229L256.632 1.72892C254.327 -0.576202 250.59 -0.576202 248.284 1.72892L228.591 21.4229C226.285 23.7281 222.548 23.7281 220.243 21.4229L200.549 1.72892C198.243 -0.576202 194.507 -0.576202 192.201 1.72892L172.509 21.423C170.203 23.7281 166.466 23.7281 164.161 21.423L144.464 1.72892C142.159 -0.576202 138.422 -0.576202 136.116 1.72892L116.424 21.423C114.118 23.7281 110.382 23.7281 108.076 21.423L88.3836 1.72892C86.0783 -0.576202 82.3414 -0.576203 80.0361 1.72896L60.3389 21.423C58.0336 23.7281 54.2967 23.7281 51.9914 21.423L32.2987 1.72896C29.9934 -0.576203 26.2566 -0.576203 23.9513 1.72896L4.25861 21.423C1.9533 23.7281 -1.78356 23.7281 -4.08887 21.423L-23.7861 1.72896C-26.0914 -0.576203 -29.8283 -0.576203 -32.1336 1.72896Z" fill="#2F4B7C"/>
</svg>
