<svg width="917" height="30" viewBox="0 0 917 30" fill="none" xmlns="http://www.w3.org/2000/svg">
<path d="M503 30V13.0962C503 13.0962 496.44 6.06606 495.152 5.07331C492.238 2.81803 488.599 0.0124311 481.307 0.0124311C474.022 0.0124311 470.383 2.81803 467.469 5.07331C466.181 6.06606 464.965 7.00485 463.538 7.6523C462.052 8.33212 460.426 8.64505 458.413 8.64505C456.399 8.64505 454.774 8.33212 453.288 7.6523C451.868 7.00485 450.645 6.06606 449.364 5.07331C446.442 2.81803 442.811 0.0124311 435.519 0.0124311C435.468 0.0124311 435.431 0.0124311 435.387 0.0124311C428.095 0.0124311 424.456 2.81803 421.542 5.07331C420.254 6.06606 419.039 7.00485 417.611 7.6523C416.132 8.33212 414.499 8.64505 412.486 8.64505C410.473 8.64505 408.847 8.33212 407.361 7.6523C405.941 7.00485 404.718 6.06606 403.437 5.07331C400.515 2.81803 396.884 0.0124311 389.592 0.0124311C382.3 0.0124311 378.661 2.81803 375.747 5.07331C374.459 6.06606 373.243 7.00485 371.816 7.6523C370.337 8.33212 368.704 8.64505 366.691 8.64505C364.677 8.64505 363.052 8.33212 361.566 7.6523C360.145 7.00485 358.93 6.06606 357.642 5.07331C354.72 2.81803 351.089 0.0124311 343.797 0.0124311C343.768 0.0124311 343.746 0.0124311 343.716 0.0124311C343.694 0.0124311 343.672 0.0124311 343.643 0.0178265C343.621 0.0178265 343.606 0.0178265 343.585 0.0178265C336.388 0.0501988 332.778 2.83422 329.872 5.07331C328.583 6.06606 327.368 7.00485 325.947 7.6523C324.461 8.33212 322.836 8.64505 320.822 8.64505C318.809 8.64505 317.176 8.33212 315.697 7.6523C314.27 7.00485 313.054 6.06606 311.766 5.07331C308.852 2.81803 305.213 0.0124311 297.921 0.0124311C290.629 0.0124311 286.998 2.81803 284.084 5.07331C282.795 6.06606 281.573 7.00485 280.152 7.6523C278.666 8.33212 277.041 8.64505 275.027 8.64505C273.014 8.64505 271.389 8.33212 269.902 7.6523C268.482 7.00485 267.259 6.06606 265.971 5.07331C263.057 2.81803 259.418 0.0124311 252.133 0.0124311C252.082 0.0124311 252.038 0.0124311 251.994 0.0124311C244.702 0.0124311 241.071 2.81803 238.157 5.07331C236.868 6.06606 235.646 7.00485 234.225 7.6523C232.739 8.33212 231.114 8.64505 229.1 8.64505C227.087 8.64505 225.462 8.33212 223.975 7.6523C222.555 7.00485 221.332 6.06606 220.044 5.07331C217.13 2.81803 213.498 0.0124311 206.206 0.0124311C198.914 0.0124311 195.276 2.81803 192.362 5.07331C191.073 6.06606 189.858 7.00485 188.43 7.6523C186.951 8.33212 185.318 8.64505 183.305 8.64505C181.292 8.64505 179.666 8.33212 178.18 7.6523C176.76 7.00485 175.537 6.06606 174.256 5.07331C171.335 2.81803 167.703 0.0124311 160.411 0.0124311C160.389 0.0124311 160.375 0.0124311 160.353 0.0124311C160.338 0.0124311 160.323 0.0124311 160.301 0.0124311C160.272 0.0178265 160.235 0.0178265 160.199 0.0178265C153.017 0.0555942 149.407 2.83422 146.508 5.07331C145.219 6.06606 144.004 7.00485 142.584 7.6523C141.097 8.33212 139.472 8.64505 137.459 8.64505C135.445 8.64505 133.813 8.33212 132.334 7.6523C130.906 7.00485 129.691 6.06606 128.402 5.07331C125.488 2.81803 121.85 0.0124311 114.557 0.0124311C107.265 0.0124311 103.634 2.81803 100.72 5.07331C99.4315 6.06606 98.2088 7.00485 96.7885 7.6523C95.3023 8.33212 93.6769 8.64505 91.6635 8.64505C89.6502 8.64505 88.0248 8.33212 86.5386 7.6523C85.1182 7.00485 83.8956 6.06606 82.607 5.07331C79.6931 2.81803 76.0544 0.0124311 68.7696 0.0124311C68.7184 0.0124311 68.6744 0.0124311 68.6305 0.0124311C61.3384 0.0124311 57.707 2.81803 54.7931 5.07331C53.5046 6.06606 52.2819 7.00485 50.8615 7.6523C49.3753 8.33212 47.75 8.64505 45.7366 8.64505C43.7232 8.64505 42.0979 8.33212 40.6116 7.6523C39.1913 7.00485 37.9686 6.06606 36.6801 5.07331C33.7662 2.81803 30.1201 0.298387 22.8427 0.0124311C10.4988 -0.467758 0 13.1232 0 13.1232L0 30H503Z" fill="#2F4B7C"/>
<path d="M917 30V13.0962C917 13.0962 910.44 6.06606 909.152 5.07331C906.238 2.81803 902.599 0.0124311 895.307 0.0124311C888.022 0.0124311 884.383 2.81803 881.469 5.07331C880.181 6.06606 878.965 7.00485 877.538 7.6523C876.052 8.33212 874.426 8.64505 872.413 8.64505C870.399 8.64505 868.774 8.33212 867.288 7.6523C865.868 7.00485 864.645 6.06606 863.364 5.07331C860.442 2.81803 856.811 0.0124311 849.519 0.0124311C849.468 0.0124311 849.431 0.0124311 849.387 0.0124311C842.095 0.0124311 838.456 2.81803 835.542 5.07331C834.254 6.06606 833.039 7.00485 831.611 7.6523C830.132 8.33212 828.499 8.64505 826.486 8.64505C824.473 8.64505 822.847 8.33212 821.361 7.6523C819.941 7.00485 818.718 6.06606 817.437 5.07331C814.515 2.81803 810.884 0.0124311 803.592 0.0124311C796.3 0.0124311 792.661 2.81803 789.747 5.07331C788.459 6.06606 787.243 7.00485 785.816 7.6523C784.337 8.33212 782.704 8.64505 780.691 8.64505C778.677 8.64505 777.052 8.33212 775.566 7.6523C774.145 7.00485 772.93 6.06606 771.642 5.07331C768.72 2.81803 765.089 0.0124311 757.797 0.0124311C757.768 0.0124311 757.746 0.0124311 757.716 0.0124311C757.694 0.0124311 757.672 0.0124311 757.643 0.0178265C757.621 0.0178265 757.606 0.0178265 757.585 0.0178265C750.388 0.0501988 746.778 2.83422 743.872 5.07331C742.583 6.06606 741.368 7.00485 739.947 7.6523C738.461 8.33212 736.836 8.64505 734.822 8.64505C732.809 8.64505 731.176 8.33212 729.697 7.6523C728.27 7.00485 727.054 6.06606 725.766 5.07331C722.852 2.81803 719.213 0.0124311 711.921 0.0124311C704.629 0.0124311 700.998 2.81803 698.084 5.07331C696.795 6.06606 695.573 7.00485 694.152 7.6523C692.666 8.33212 691.041 8.64505 689.027 8.64505C687.014 8.64505 685.389 8.33212 683.902 7.6523C682.482 7.00485 681.259 6.06606 679.971 5.07331C677.057 2.81803 673.418 0.0124311 666.133 0.0124311C666.082 0.0124311 666.038 0.0124311 665.994 0.0124311C658.702 0.0124311 655.071 2.81803 652.157 5.07331C650.868 6.06606 649.646 7.00485 648.225 7.6523C646.739 8.33212 645.114 8.64505 643.1 8.64505C641.087 8.64505 639.462 8.33212 637.975 7.6523C636.555 7.00485 635.332 6.06606 634.044 5.07331C631.13 2.81803 627.498 0.0124311 620.206 0.0124311C612.914 0.0124311 609.276 2.81803 606.362 5.07331C605.073 6.06606 603.858 7.00485 602.43 7.6523C600.951 8.33212 599.318 8.64505 597.305 8.64505C595.292 8.64505 593.666 8.33212 592.18 7.6523C590.76 7.00485 589.537 6.06606 588.256 5.07331C585.335 2.81803 581.703 0.0124311 574.411 0.0124311C574.389 0.0124311 574.375 0.0124311 574.353 0.0124311C574.338 0.0124311 574.323 0.0124311 574.301 0.0124311C574.272 0.0178265 574.235 0.0178265 574.199 0.0178265C567.017 0.0555942 563.407 2.83422 560.508 5.07331C559.219 6.06606 558.004 7.00485 556.584 7.6523C555.097 8.33212 553.472 8.64505 551.459 8.64505C549.445 8.64505 547.813 8.33212 546.334 7.6523C544.906 7.00485 543.691 6.06606 542.402 5.07331C539.488 2.81803 535.85 0.0124311 528.557 0.0124311C521.265 0.0124311 517.634 2.81803 514.72 5.07331C513.432 6.06606 512.209 7.00485 510.788 7.6523C509.302 8.33212 507.677 8.64505 505.664 8.64505C503.65 8.64505 502.025 8.33212 500.539 7.6523C499.118 7.00485 497.896 6.06606 496.607 5.07331C493.693 2.81803 490.054 0.0124311 482.77 0.0124311C482.718 0.0124311 482.674 0.0124311 482.631 0.0124311C475.338 0.0124311 471.707 2.81803 468.793 5.07331C467.505 6.06606 466.282 7.00485 464.862 7.6523C463.375 8.33212 461.75 8.64505 459.737 8.64505C457.723 8.64505 456.098 8.33212 454.612 7.6523C453.191 7.00485 451.969 6.06606 450.68 5.07331C447.766 2.81803 444.12 0.298387 436.843 0.0124311C424.499 -0.467758 414 13.1232 414 13.1232V30H917Z" fill="#2F4B7C"/>
</svg>
