<svg width="673" height="46" viewBox="0 0 673 46" fill="none" xmlns="http://www.w3.org/2000/svg">
<mask id="mask0_279_6" style="mask-type:luminance" maskUnits="userSpaceOnUse" x="0" y="0" width="673" height="46">
<path d="M673 0H0V45.5483H673V0Z" fill="white"/>
</mask>
<g mask="url(#mask0_279_6)">
<path d="M705.372 41.4495L729.238 17.5817V0L-27.8867 6.61901e-05V38.1014C-27.8867 40.8772 -24.5306 42.2673 -22.5678 40.3045L-4.01885 21.7556C-1.71373 19.4504 2.02368 19.4504 4.3288 21.7556L24.0228 41.4496C26.3279 43.7547 30.0654 43.7547 32.3705 41.4496L52.0646 21.7556C54.3694 19.4504 58.1072 19.4504 60.412 21.7556L80.1061 41.4496C82.4114 43.7547 86.1487 43.7547 88.454 41.4496L108.148 21.7556C110.453 19.4504 114.19 19.4504 116.495 21.7556L136.19 41.4496C138.494 43.7547 142.232 43.7547 144.537 41.4496L164.231 21.7556C166.536 19.4504 170.274 19.4504 172.579 21.7556L192.273 41.4496C194.578 43.7547 198.315 43.7547 200.62 41.4496L220.315 21.7556C222.619 19.4504 226.357 19.4504 228.662 21.7556L248.356 41.4496C250.661 43.7547 254.399 43.7547 256.704 41.4496L276.398 21.7556C278.703 19.4504 282.44 19.4504 284.745 21.7556L304.44 41.4496C306.744 43.7547 310.482 43.7547 312.787 41.4496L332.481 21.7556C334.786 19.4504 338.524 19.4504 340.829 21.7556L360.523 41.4496C362.828 43.7547 366.565 43.7547 368.87 41.4496L388.565 21.7556C390.869 19.4504 394.607 19.4504 396.912 21.7556L416.606 41.4496C418.911 43.7547 422.649 43.7547 424.954 41.4496L444.648 21.7556C446.953 19.4504 450.69 19.4504 452.995 21.7556L472.69 41.4496C474.995 43.7547 478.732 43.7547 481.037 41.4496L500.73 21.7555C503.035 19.4504 506.772 19.4504 509.077 21.7555L528.774 41.4496C531.08 43.7547 534.817 43.7547 537.122 41.4496L556.815 21.7555C559.12 19.4504 562.857 19.4504 565.162 21.7555L584.855 41.4496C587.16 43.7547 590.897 43.7547 593.202 41.4495L612.899 21.7555C615.205 19.4504 618.942 19.4504 621.247 21.7555L640.94 41.4495C643.245 43.7547 646.982 43.7547 649.287 41.4495L668.98 21.7555C671.285 19.4504 675.022 19.4504 677.327 21.7555L697.024 41.4495C699.33 43.7547 703.067 43.7547 705.372 41.4495Z" fill="#2F4B7C"/>
</g>
</svg>
