<svg width="216" height="206" viewBox="0 0 216 206" fill="none" xmlns="http://www.w3.org/2000/svg">
<path fill-rule="evenodd" clip-rule="evenodd" d="M6.88095 169.128C6.88095 165.013 9.54875 161.336 12.0539 159.661C15.5513 162.003 21.2447 175.163 28.8414 175.163C34.5024 175.163 37.9184 169.86 41.7575 164.834C45.2061 160.312 48.4269 156.05 51.4689 150.877C52.2497 149.543 52.7702 148.632 53.5023 147.331C54.9988 144.663 54.641 143.443 56.3653 142.873L86.931 139.002C89.0945 142.223 96.8376 151.723 99.847 153.626C101.49 154.667 104.467 155.789 107.151 155.789C115.317 155.789 118.066 151.186 121.905 146.859C122.816 145.85 123.158 145.281 124.052 144.289C125.451 142.711 127.127 140.677 128.249 139.002L144.598 140.726C144.598 151.511 149.559 158.929 154.927 166.981C157.416 170.706 159.954 174.074 162.8 177.603C167.859 183.85 173.699 190.438 181.914 180.629C188.844 172.349 193.399 166.086 198.393 156.652C199.84 156.993 200.621 157.611 201.711 158.506C204.867 161.109 208.283 163.646 208.283 169.128C208.283 184.289 166.428 193.757 153.073 195.692C141.686 197.352 134.935 197.856 123.483 198.799C120.994 199.011 117.887 198.783 115.317 198.816C112.649 198.848 110.811 199.255 107.59 199.255C104.369 199.255 102.515 198.848 99.8633 198.816C97.2118 198.783 94.2837 198.962 91.6647 198.832L76.5852 197.547C59.3259 196.05 38.9433 191.853 23.6685 185.054C18.3004 182.646 6.88095 176.27 6.88095 169.128ZM173.862 178.596C171.145 178.596 168.12 173.553 166.672 171.585C156.993 158.555 143.085 142.45 158.034 127.485C171.666 113.837 195.806 123.239 195.806 143.313C195.806 148.713 190.292 158.457 187.022 162.931L177.734 175.147C176.481 176.774 175.489 178.596 173.862 178.596ZM6.88095 133.422C6.88095 126.216 9.35354 121.254 13.4366 117.155C26.6291 103.963 51.2086 112.161 51.2086 133.422C51.2086 139.262 44.9133 148.925 42.2617 152.878C38.8131 158.034 35.4947 162.02 31.6231 166.753C30.1753 168.51 28.5486 169.031 26.8569 167.241C20.8381 160.881 6.88095 141.426 6.88095 133.422ZM52.0708 62.4003C52.0708 33.5264 74.2102 9.71142 101.197 6.94602C108.046 6.24654 113.967 6.63695 120.165 8.10098C126.671 9.63008 133.959 12.7046 139.246 16.5436C143.833 19.862 149.803 25.4091 153.04 30.3055C155.041 33.3311 156.44 35.6085 158.083 39.0246C160.995 45.0597 163.11 53.7463 163.11 62.4003C163.11 81.3189 143.589 106.777 133.666 121.189L118.099 140.905C116.862 142.499 113.609 146.696 111.722 147.884C108.843 149.673 104.06 149.315 101.376 146.078L97.1955 141.23C94.4789 137.896 92.0226 134.886 89.3223 131.454C87.9396 129.681 86.8822 128.331 85.5808 126.59L78.0655 116.456C68.9071 103.182 52.0708 79.3506 52.0708 62.4003ZM81.3351 132.983C73.104 132.983 61.2942 135.569 57.6666 135.569C60.6923 122.946 47.9389 104.158 30.1265 104.158C20.4802 104.158 14.1686 106.972 8.49139 112.649C4.31076 116.83 0 124.378 0 132.56C0 140.043 5.49826 149.429 8.60526 154.065C2.27738 157.416 -5.02651 169.925 5.48199 180.873C8.19858 183.687 11.7285 186.258 15.3398 188.21C55.7471 210.17 132.934 209.405 175.066 197.872C188.047 194.326 215.18 185.314 215.18 168.705C215.18 160.832 207.6 153.479 201.402 150.194C203.013 143.313 203.468 139.604 200.247 131.991C196.262 122.556 185.965 114.471 175.147 114.471C164.167 114.471 156.196 118.261 150.128 126.46C149.006 127.956 146.501 132.153 146.322 134.268C144.907 133.601 136.383 132.983 133.845 132.983C134.008 130.966 138.367 126.346 139.604 124.557L145.525 116.26C152.552 106.809 162.215 89.9079 166.054 79.5621C170.609 67.2967 171.129 56.837 166.932 43.5306C164.671 36.3731 161.711 30.6471 157.27 24.7747C154.895 21.6514 153.008 19.8132 150.307 17.1129C140.694 7.48283 124.492 0 109.737 0H105.443C84.3771 0 65.8327 12.8347 55.4218 28.3209C50.0374 36.3568 47.2069 45.0109 45.7917 54.8362C42.6196 76.7967 59.9928 102.661 72.3069 120.067L78.5047 128.493C79.1554 129.323 79.4807 129.648 80.0663 130.38C80.961 131.519 81.205 131.324 81.3351 132.983Z" fill="#484444"/>
<path fill-rule="evenodd" clip-rule="evenodd" d="M104.581 70.5829H110.177C109.462 73.2507 106.582 73.2832 105.313 71.9981C104.175 70.8594 104.874 71.1522 104.581 70.5829ZM97.6843 68.4356C97.6843 73.6085 99.9454 78.4073 104.142 78.7652V87.7934C96.1714 87.7934 87.9891 87.8584 84.085 78.1633C81.6287 72.0306 83.6621 65.231 84.9634 57.4228C86.6389 47.4186 86.9317 38.2115 96.9685 32.8596C108.778 26.548 122.28 31.5908 126.965 43.4657C128.803 48.1181 131.682 67.6548 131.682 74.0315C131.682 75.7232 130.788 78.0982 130.121 79.3345C129.535 80.4244 127.811 82.8482 127.014 83.564C121.759 88.3465 117.058 87.7934 110.6 87.7934V78.7652C117.123 77.2361 122.573 63.7019 107.152 63.7019C103.654 63.7019 97.6843 65.231 97.6843 68.4356ZM124.378 28.8417C130.137 28.8417 134.448 31.3956 137.002 35.5762L144.306 47.6463C145.786 50.1189 147.608 53.4862 147.608 57.2439C147.608 63.0512 143.183 69.9322 138.58 71.0221L134.822 46.8005C132.479 34.5514 127.258 33.1524 124.378 28.8417ZM76.1792 71.0221C71.0389 69.8183 62.7427 60.2533 70.3882 47.5813C76.6347 37.2517 79.514 28.8417 90.3804 28.8417C88.9651 30.9401 81.8239 35.1858 79.9695 46.4101C79.335 50.2979 78.5054 54.7225 77.9686 58.6103C77.5294 61.7987 76.1792 68.582 76.1792 71.0221ZM60.6768 55.0966C60.6768 61.7173 61.1485 66.9553 66.3702 72.2096C68.2084 74.0477 69.1356 75.1702 71.5757 76.4715C72.7144 77.0734 73.5928 77.5451 74.764 78.0169C76.651 78.7814 76.6998 78.2609 77.5457 79.9689C85.8744 96.6914 95.7485 94.6906 114.472 94.6906C120.735 94.6906 125.501 92.9988 129.112 90.3961C131.878 88.3953 134.041 85.8413 135.814 82.897C138.092 79.1231 135.586 79.9201 140.288 77.8868C149.413 73.9664 154.066 66.5974 154.066 55.9588C154.066 48.7688 148.128 41.0745 144.143 34.4538C137.848 23.9615 128.559 18.935 116.375 23.8965C112.813 25.3442 113.04 22.221 102.922 23.7501C100.043 24.173 100.596 24.661 98.6603 24.0103C88.2006 20.4316 82.0679 21.3914 74.1133 29.3622C72.6005 30.8913 72.0474 32.0625 70.925 33.917C69.8839 35.6738 68.9729 37.024 67.9644 38.7157C64.9875 43.7423 60.6768 49.4032 60.6768 55.0966Z" fill="#484444"/>
<path fill-rule="evenodd" clip-rule="evenodd" d="M24.1062 132.121C24.1062 124.524 33.9966 124.524 33.9966 132.121C33.9966 138.123 24.1062 137.977 24.1062 132.121ZM17.209 131.259C17.209 147.135 40.8775 147.591 40.8775 130.836C40.8775 129.307 40.2594 127.615 39.7388 126.379C38.9417 124.541 38.4212 124.264 37.1198 122.963C29.637 115.463 17.209 121.58 17.209 131.259Z" fill="#484444"/>
<path fill-rule="evenodd" clip-rule="evenodd" d="M178.596 139.441C178.596 143.459 177.018 145.037 173 145.037C166.168 145.037 167.665 132.755 175.164 135.081C176.904 135.635 178.596 137.278 178.596 139.441ZM161.809 139.864C161.809 143.833 162.931 145.948 165.143 148.16C173.57 156.587 185.477 149.689 185.477 139.864C185.477 128.623 171.341 124.736 164.932 131.812C163.386 133.52 161.809 136.692 161.809 139.864Z" fill="#484444"/>
</svg>
