<svg width="33" height="15" viewBox="0 0 33 15" fill="none" xmlns="http://www.w3.org/2000/svg">
<path d="M4.44687 0L3.21417 7.0218L2.91499 8.82997L2.61744 7.12807L1.36185 0L1.21308 0.0212534H0V14.9787H1.36185V7.91444L2.21362 12.788H3.59673L4.46812 7.80817V15H5.82997V0.0212534H4.61853L4.44687 0Z" fill="white"/>
<path d="M11.9799 0.0429688H9.44907H8.38477V15.0005H9.74662H11.9799V13.6386H9.74662V8.14869H11.5548V6.78847H9.74662V1.40482H11.9799V0.0429688Z" fill="white"/>
<path d="M17.9812 0.0429688H14.5332V15.0005H15.8951V8.25659H17.4057V15.0005H18.7888V8.21409L18.0874 7.53234L18.7888 6.83098V0.83098L17.9812 0.0429688ZM17.4057 1.40482V6.85223H15.8951V1.40482H17.4057Z" fill="white"/>
<path d="M22.1475 0.0429688L21.3398 0.83098V14.2141L22.1475 15.0005H24.7437L25.5529 14.2141V8.16994H23.3818V9.5318H24.1698V13.6386H22.7017V1.40482H24.1698V4.29855H25.5529V0.83098L24.7437 0.0429688H22.1475Z" fill="white"/>
<path d="M32.3205 0.0429688H30.9374V13.6386H29.4693V0.0429688H28.1074V14.2141L28.9167 15.0005H31.5129L32.3205 14.2141V0.0429688Z" fill="white"/>
</svg>
