<svg width="383" height="391" viewBox="0 0 383 391" fill="none" xmlns="http://www.w3.org/2000/svg">
<path d="M292.99 166.681C267.11 151.829 236.878 155.231 225.875 174.071C215.274 193.247 227.751 220.819 253.968 235.27C279.847 250.122 309.742 247.121 320.745 228.282C331.347 209.105 318.87 181.533 292.99 166.681Z" fill="#FFC93C"/>
<path d="M241.146 250.554C222.006 227.663 192.679 220.188 175.647 233.973C159.016 248.094 160.941 278.456 180.081 301.347C199.221 324.238 228.547 331.713 245.58 317.929C262.21 303.807 260.35 274.184 241.146 250.554Z" fill="#FFC93C"/>
<path d="M134.577 270.714C124.967 250.336 104.649 239.463 90.3901 246.674C75.3919 253.95 71.3642 275.9 80.9748 296.277C90.9872 316.992 110.902 327.529 125.564 320.655C140.562 313.379 144.927 291.027 134.577 270.714Z" fill="#FFC93C"/>
<path d="M256.752 127.435C234.738 122.668 219.813 105.364 223.284 89.793C226.691 73.4832 247.471 64.2097 269.485 68.9763C291.901 74.0798 306.761 90.6453 303.355 106.955C299.949 123.265 278.767 132.201 256.752 127.435Z" fill="#FFC93C"/>
<path d="M57.3885 210.108C11.6343 193.653 76.9015 152.543 101.502 123.2C124.081 96.2689 154.519 23.2222 179.38 64.5994C207.379 112.03 219.613 153.773 185.913 193.969C152.214 234.165 113.411 229.012 57.3885 210.108Z" fill="#FFC93C"/>
</svg>
