<svg width="499" height="478" viewBox="0 0 499 478" fill="none" xmlns="http://www.w3.org/2000/svg">
<path d="M201.522 112.457C185.484 147.047 193.166 185.154 218.367 197.072C243.952 208.441 277.668 189.503 293.157 154.529C309.195 119.94 302.062 82.217 276.861 70.2986C251.276 58.9292 217.56 77.8676 201.522 112.457Z" fill="#FFC93C"/>
<path d="M314.034 169.162C287.016 196.063 280.751 234.222 300.186 254.376C320.004 273.981 358.441 268.166 385.459 241.265C412.477 214.364 418.742 176.204 399.307 156.051C379.488 136.446 341.986 142.096 314.034 169.162Z" fill="#FFC93C"/>
<path d="M351.506 302.585C326.631 317.077 315.041 344.145 325.801 361.497C336.725 379.783 365.112 382.478 389.987 367.985C415.246 352.944 426.451 326.426 416.076 308.524C405.152 290.238 376.216 287.16 351.506 302.585Z" fill="#FFC93C"/>
<path d="M155.577 162.938C151.949 191.489 131.576 212.406 111.37 209.713C90.2312 207.184 76.1235 181.76 79.7513 153.208C83.7636 124.108 103.204 103.356 124.343 105.884C145.482 108.413 159.205 134.386 155.577 162.938Z" fill="#FFC93C"/>
<path d="M282.914 407.56C267.037 467.626 207.473 389.1 167.395 361.037C130.61 335.28 34.2518 304.628 84.1678 268.396C141.442 227.498 193.223 207.299 248.125 245.742C303.027 284.185 300.769 334.151 282.914 407.56Z" fill="#FFC93C"/>
</svg>
