<svg width="141" height="141" viewBox="0 0 141 141" fill="none" xmlns="http://www.w3.org/2000/svg">
<g clip-path="url(#clip0_176_3353)">
<path d="M141 0H0V141H141V0Z" fill="white"/>
<mask id="mask0_176_3353" style="mask-type:luminance" maskUnits="userSpaceOnUse" x="8" y="8" width="125" height="125">
<path d="M47.0071 8.54517H42.7344V12.8179H47.0071V8.54517Z" fill="white"/>
<path d="M59.8235 8.54517H55.5508V12.8179H59.8235V8.54517Z" fill="white"/>
<path d="M68.3684 8.54529H64.0957V12.818H68.3684V8.54529Z" fill="white"/>
<path d="M76.9134 8.54517H72.6406V12.8179H76.9134V8.54517Z" fill="white"/>
<path d="M81.1848 8.54517H76.9121V12.8179H81.1848V8.54517Z" fill="white"/>
<path d="M47.0071 12.8181H42.7344V17.0908H47.0071V12.8181Z" fill="white"/>
<path d="M55.5501 12.8181H51.2773V17.0908H55.5501V12.8181Z" fill="white"/>
<path d="M64.095 12.8181H59.8223V17.0908H64.095V12.8181Z" fill="white"/>
<path d="M72.638 12.8181H68.3652V17.0908H72.638V12.8181Z" fill="white"/>
<path d="M76.9134 12.8181H72.6406V17.0908H76.9134V12.8181Z" fill="white"/>
<path d="M85.4583 12.8181H81.1855V17.0908H85.4583V12.8181Z" fill="white"/>
<path d="M89.7298 12.8181H85.457V17.0908H89.7298V12.8181Z" fill="white"/>
<path d="M98.2766 12.8179H94.0039V17.0906H98.2766V12.8179Z" fill="white"/>
<path d="M47.0071 17.0908H42.7344V21.3635H47.0071V17.0908Z" fill="white"/>
<path d="M59.8235 17.0908H55.5508V21.3635H59.8235V17.0908Z" fill="white"/>
<path d="M64.095 17.0908H59.8223V21.3635H64.095V17.0908Z" fill="white"/>
<path d="M68.3684 17.0907H64.0957V21.3634H68.3684V17.0907Z" fill="white"/>
<path d="M72.638 17.0908H68.3652V21.3635H72.638V17.0908Z" fill="white"/>
<path d="M76.9134 17.0908H72.6406V21.3635H76.9134V17.0908Z" fill="white"/>
<path d="M89.7298 17.0908H85.457V21.3635H89.7298V17.0908Z" fill="white"/>
<path d="M59.8235 21.3635H55.5508V25.6363H59.8235V21.3635Z" fill="white"/>
<path d="M64.095 21.3635H59.8223V25.6363H64.095V21.3635Z" fill="white"/>
<path d="M72.638 21.3635H68.3652V25.6363H72.638V21.3635Z" fill="white"/>
<path d="M76.9134 21.3635H72.6406V25.6363H76.9134V21.3635Z" fill="white"/>
<path d="M81.1848 21.3635H76.9121V25.6363H81.1848V21.3635Z" fill="white"/>
<path d="M85.4583 21.3635H81.1855V25.6363H85.4583V21.3635Z" fill="white"/>
<path d="M98.2766 21.3635H94.0039V25.6363H98.2766V21.3635Z" fill="white"/>
<path d="M59.8235 25.6361H55.5508V29.9088H59.8235V25.6361Z" fill="white"/>
<path d="M64.095 25.6361H59.8223V29.9088H64.095V25.6361Z" fill="white"/>
<path d="M85.4583 25.6361H81.1855V29.9088H85.4583V25.6361Z" fill="white"/>
<path d="M89.7298 25.6361H85.457V29.9088H89.7298V25.6361Z" fill="white"/>
<path d="M94.0071 25.6361H89.7344V29.9088H94.0071V25.6361Z" fill="white"/>
<path d="M98.2766 25.6361H94.0039V29.9088H98.2766V25.6361Z" fill="white"/>
<path d="M47.0071 29.9087H42.7344V34.1814H47.0071V29.9087Z" fill="white"/>
<path d="M55.5501 29.9087H51.2773V34.1814H55.5501V29.9087Z" fill="white"/>
<path d="M72.638 29.9087H68.3652V34.1814H72.638V29.9087Z" fill="white"/>
<path d="M76.9134 29.9087H72.6406V34.1814H76.9134V29.9087Z" fill="white"/>
<path d="M85.4583 29.9087H81.1855V34.1814H85.4583V29.9087Z" fill="white"/>
<path d="M98.2766 29.9089H94.0039V34.1817H98.2766V29.9089Z" fill="white"/>
<path d="M47.0071 34.1815H42.7344V38.4542H47.0071V34.1815Z" fill="white"/>
<path d="M55.5501 34.1815H51.2773V38.4542H55.5501V34.1815Z" fill="white"/>
<path d="M64.095 34.1815H59.8223V38.4542H64.095V34.1815Z" fill="white"/>
<path d="M72.638 34.1815H68.3652V38.4542H72.638V34.1815Z" fill="white"/>
<path d="M81.1848 34.1816H76.9121V38.4544H81.1848V34.1816Z" fill="white"/>
<path d="M89.7298 34.1815H85.457V38.4542H89.7298V34.1815Z" fill="white"/>
<path d="M98.2766 34.1816H94.0039V38.4544H98.2766V34.1816Z" fill="white"/>
<path d="M47.0071 38.4543H42.7344V42.7271H47.0071V38.4543Z" fill="white"/>
<path d="M59.8235 38.4543H55.5508V42.7271H59.8235V38.4543Z" fill="white"/>
<path d="M68.3684 38.4543H64.0957V42.7271H68.3684V38.4543Z" fill="white"/>
<path d="M72.638 38.4543H68.3652V42.7271H72.638V38.4543Z" fill="white"/>
<path d="M81.1848 38.4543H76.9121V42.7271H81.1848V38.4543Z" fill="white"/>
<path d="M85.4583 38.4543H81.1855V42.7271H85.4583V38.4543Z" fill="white"/>
<path d="M89.7298 38.4543H85.457V42.7271H89.7298V38.4543Z" fill="white"/>
<path d="M98.2766 38.4543H94.0039V42.7271H98.2766V38.4543Z" fill="white"/>
<path d="M21.3684 42.7271H17.0957V46.9998H21.3684V42.7271Z" fill="white"/>
<path d="M25.638 42.7271H21.3652V46.9998H25.638V42.7271Z" fill="white"/>
<path d="M29.9134 42.7271H25.6406V46.9998H29.9134V42.7271Z" fill="white"/>
<path d="M38.4583 42.7271H34.1855V46.9998H38.4583V42.7271Z" fill="white"/>
<path d="M47.0071 42.7271H42.7344V46.9998H47.0071V42.7271Z" fill="white"/>
<path d="M68.3684 42.7271H64.0957V46.9998H68.3684V42.7271Z" fill="white"/>
<path d="M76.9134 42.7271H72.6406V46.9998H76.9134V42.7271Z" fill="white"/>
<path d="M81.1848 42.7271H76.9121V46.9998H81.1848V42.7271Z" fill="white"/>
<path d="M102.55 42.7271H98.2773V46.9998H102.55V42.7271Z" fill="white"/>
<path d="M106.824 42.7271H102.551V46.9998H106.824V42.7271Z" fill="white"/>
<path d="M111.095 42.7271H106.822V46.9998H111.095V42.7271Z" fill="white"/>
<path d="M123.913 42.7271H119.641V46.9998H123.913V42.7271Z" fill="white"/>
<path d="M128.185 42.7271H123.912V46.9998H128.185V42.7271Z" fill="white"/>
<path d="M132.458 42.7271H128.186V46.9998H132.458V42.7271Z" fill="white"/>
<path d="M12.8235 46.9998H8.55078V51.2725H12.8235V46.9998Z" fill="white"/>
<path d="M21.3684 46.9998H17.0957V51.2725H21.3684V46.9998Z" fill="white"/>
<path d="M25.638 46.9998H21.3652V51.2725H25.638V46.9998Z" fill="white"/>
<path d="M29.9134 46.9998H25.6406V51.2725H29.9134V46.9998Z" fill="white"/>
<path d="M34.1848 46.9998H29.9121V51.2725H34.1848V46.9998Z" fill="white"/>
<path d="M42.7298 46.9998H38.457V51.2725H42.7298V46.9998Z" fill="white"/>
<path d="M47.0071 46.9998H42.7344V51.2725H47.0071V46.9998Z" fill="white"/>
<path d="M68.3684 46.9998H64.0957V51.2725H68.3684V46.9998Z" fill="white"/>
<path d="M72.638 46.9998H68.3652V51.2725H72.638V46.9998Z" fill="white"/>
<path d="M76.9134 46.9998H72.6406V51.2725H76.9134V46.9998Z" fill="white"/>
<path d="M81.1848 46.9998H76.9121V51.2725H81.1848V46.9998Z" fill="white"/>
<path d="M85.4583 46.9998H81.1855V51.2725H85.4583V46.9998Z" fill="white"/>
<path d="M89.7298 46.9998H85.457V51.2725H89.7298V46.9998Z" fill="white"/>
<path d="M98.2766 46.9998H94.0039V51.2725H98.2766V46.9998Z" fill="white"/>
<path d="M102.55 46.9998H98.2773V51.2725H102.55V46.9998Z" fill="white"/>
<path d="M106.824 46.9998H102.551V51.2725H106.824V46.9998Z" fill="white"/>
<path d="M111.095 46.9998H106.822V51.2725H111.095V46.9998Z" fill="white"/>
<path d="M115.368 46.9998H111.096V51.2725H115.368V46.9998Z" fill="white"/>
<path d="M119.638 46.9998H115.365V51.2725H119.638V46.9998Z" fill="white"/>
<path d="M123.913 46.9998H119.641V51.2725H123.913V46.9998Z" fill="white"/>
<path d="M132.458 46.9998H128.186V51.2725H132.458V46.9998Z" fill="white"/>
<path d="M12.8235 51.2725H8.55078V55.5452H12.8235V51.2725Z" fill="white"/>
<path d="M21.3684 51.2725H17.0957V55.5452H21.3684V51.2725Z" fill="white"/>
<path d="M25.638 51.2725H21.3652V55.5452H25.638V51.2725Z" fill="white"/>
<path d="M29.9134 51.2725H25.6406V55.5452H29.9134V51.2725Z" fill="white"/>
<path d="M34.1848 51.2725H29.9121V55.5452H34.1848V51.2725Z" fill="white"/>
<path d="M38.4583 51.2725H34.1855V55.5452H38.4583V51.2725Z" fill="white"/>
<path d="M42.7298 51.2725H38.457V55.5452H42.7298V51.2725Z" fill="white"/>
<path d="M47.0071 51.2725H42.7344V55.5452H47.0071V51.2725Z" fill="white"/>
<path d="M55.5501 51.2725H51.2773V55.5452H55.5501V51.2725Z" fill="white"/>
<path d="M68.3684 51.2725H64.0957V55.5452H68.3684V51.2725Z" fill="white"/>
<path d="M81.1848 51.2725H76.9121V55.5452H81.1848V51.2725Z" fill="white"/>
<path d="M89.7298 51.2725H85.457V55.5452H89.7298V51.2725Z" fill="white"/>
<path d="M94.0071 51.2725H89.7344V55.5452H94.0071V51.2725Z" fill="white"/>
<path d="M102.55 51.2725H98.2773V55.5452H102.55V51.2725Z" fill="white"/>
<path d="M106.824 51.2725H102.551V55.5452H106.824V51.2725Z" fill="white"/>
<path d="M123.913 51.2725H119.641V55.5452H123.913V51.2725Z" fill="white"/>
<path d="M21.3684 55.5453H17.0957V59.818H21.3684V55.5453Z" fill="white"/>
<path d="M29.9134 55.5452H25.6406V59.8179H29.9134V55.5452Z" fill="white"/>
<path d="M42.7298 55.5452H38.457V59.8179H42.7298V55.5452Z" fill="white"/>
<path d="M47.0071 55.5452H42.7344V59.8179H47.0071V55.5452Z" fill="white"/>
<path d="M51.2766 55.5452H47.0039V59.8179H51.2766V55.5452Z" fill="white"/>
<path d="M81.1848 55.5452H76.9121V59.8179H81.1848V55.5452Z" fill="white"/>
<path d="M94.0071 55.5452H89.7344V59.8179H94.0071V55.5452Z" fill="white"/>
<path d="M98.2766 55.5452H94.0039V59.8179H98.2766V55.5452Z" fill="white"/>
<path d="M102.55 55.5452H98.2773V59.8179H102.55V55.5452Z" fill="white"/>
<path d="M106.824 55.5452H102.551V59.8179H106.824V55.5452Z" fill="white"/>
<path d="M111.095 55.5452H106.822V59.8179H111.095V55.5452Z" fill="white"/>
<path d="M119.638 55.5452H115.365V59.8179H119.638V55.5452Z" fill="white"/>
<path d="M128.185 55.5452H123.912V59.8179H128.185V55.5452Z" fill="white"/>
<path d="M21.3684 59.8179H17.0957V64.0906H21.3684V59.8179Z" fill="white"/>
<path d="M25.638 59.8181H21.3652V64.0908H25.638V59.8181Z" fill="white"/>
<path d="M38.4583 59.8181H34.1855V64.0908H38.4583V59.8181Z" fill="white"/>
<path d="M51.2766 59.8179H47.0039V64.0906H51.2766V59.8179Z" fill="white"/>
<path d="M59.8235 59.8181H55.5508V64.0908H59.8235V59.8181Z" fill="white"/>
<path d="M64.095 59.8181H59.8223V64.0908H64.095V59.8181Z" fill="white"/>
<path d="M72.638 59.8181H68.3652V64.0908H72.638V59.8181Z" fill="white"/>
<path d="M81.1848 59.8179H76.9121V64.0906H81.1848V59.8179Z" fill="white"/>
<path d="M94.0071 59.8181H89.7344V64.0908H94.0071V59.8181Z" fill="white"/>
<path d="M102.55 59.8181H98.2773V64.0908H102.55V59.8181Z" fill="white"/>
<path d="M111.095 59.8181H106.822V64.0908H111.095V59.8181Z" fill="white"/>
<path d="M123.913 59.8181H119.641V64.0908H123.913V59.8181Z" fill="white"/>
<path d="M128.185 59.8179H123.912V64.0906H128.185V59.8179Z" fill="white"/>
<path d="M132.458 59.8181H128.186V64.0908H132.458V59.8181Z" fill="white"/>
<path d="M21.3684 64.0907H17.0957V68.3634H21.3684V64.0907Z" fill="white"/>
<path d="M34.1848 64.0907H29.9121V68.3634H34.1848V64.0907Z" fill="white"/>
<path d="M42.7298 64.0908H38.457V68.3635H42.7298V64.0908Z" fill="white"/>
<path d="M55.5501 64.0908H51.2773V68.3635H55.5501V64.0908Z" fill="white"/>
<path d="M72.638 64.0908H68.3652V68.3635H72.638V64.0908Z" fill="white"/>
<path d="M81.1848 64.0907H76.9121V68.3634H81.1848V64.0907Z" fill="white"/>
<path d="M85.4583 64.0908H81.1855V68.3635H85.4583V64.0908Z" fill="white"/>
<path d="M94.0071 64.0908H89.7344V68.3635H94.0071V64.0908Z" fill="white"/>
<path d="M98.2766 64.0907H94.0039V68.3634H98.2766V64.0907Z" fill="white"/>
<path d="M102.55 64.0908H98.2773V68.3635H102.55V64.0908Z" fill="white"/>
<path d="M106.824 64.0908H102.551V68.3635H106.824V64.0908Z" fill="white"/>
<path d="M115.368 64.0907H111.096V68.3634H115.368V64.0907Z" fill="white"/>
<path d="M119.638 64.0908H115.365V68.3635H119.638V64.0908Z" fill="white"/>
<path d="M128.185 64.0907H123.912V68.3634H128.185V64.0907Z" fill="white"/>
<path d="M132.458 64.0908H128.186V68.3635H132.458V64.0908Z" fill="white"/>
<path d="M12.8235 68.3635H8.55078V72.6363H12.8235V68.3635Z" fill="white"/>
<path d="M21.3684 68.3635H17.0957V72.6363H21.3684V68.3635Z" fill="white"/>
<path d="M29.9134 68.3635H25.6406V72.6363H29.9134V68.3635Z" fill="white"/>
<path d="M34.1848 68.3635H29.9121V72.6363H34.1848V68.3635Z" fill="white"/>
<path d="M38.4583 68.3635H34.1855V72.6363H38.4583V68.3635Z" fill="white"/>
<path d="M47.0071 68.3635H42.7344V72.6363H47.0071V68.3635Z" fill="white"/>
<path d="M55.5501 68.3635H51.2773V72.6363H55.5501V68.3635Z" fill="white"/>
<path d="M59.8235 68.3635H55.5508V72.6363H59.8235V68.3635Z" fill="white"/>
<path d="M64.095 68.3635H59.8223V72.6363H64.095V68.3635Z" fill="white"/>
<path d="M68.3684 68.3635H64.0957V72.6363H68.3684V68.3635Z" fill="white"/>
<path d="M81.1848 68.3635H76.9121V72.6363H81.1848V68.3635Z" fill="white"/>
<path d="M85.4583 68.3635H81.1855V72.6363H85.4583V68.3635Z" fill="white"/>
<path d="M98.2766 68.3635H94.0039V72.6363H98.2766V68.3635Z" fill="white"/>
<path d="M102.55 68.3635H98.2773V72.6363H102.55V68.3635Z" fill="white"/>
<path d="M111.095 68.3635H106.822V72.6363H111.095V68.3635Z" fill="white"/>
<path d="M128.185 68.3635H123.912V72.6363H128.185V68.3635Z" fill="white"/>
<path d="M12.8235 72.6361H8.55078V76.9088H12.8235V72.6361Z" fill="white"/>
<path d="M21.3684 72.6361H17.0957V76.9088H21.3684V72.6361Z" fill="white"/>
<path d="M25.638 72.6361H21.3652V76.9088H25.638V72.6361Z" fill="white"/>
<path d="M29.9134 72.6361H25.6406V76.9088H29.9134V72.6361Z" fill="white"/>
<path d="M34.1848 72.6361H29.9121V76.9088H34.1848V72.6361Z" fill="white"/>
<path d="M47.0071 72.6361H42.7344V76.9088H47.0071V72.6361Z" fill="white"/>
<path d="M55.5501 72.6361H51.2773V76.9088H55.5501V72.6361Z" fill="white"/>
<path d="M59.8235 72.6361H55.5508V76.9088H59.8235V72.6361Z" fill="white"/>
<path d="M64.095 72.6361H59.8223V76.9088H64.095V72.6361Z" fill="white"/>
<path d="M89.7298 72.6361H85.457V76.9088H89.7298V72.6361Z" fill="white"/>
<path d="M98.2766 72.6361H94.0039V76.9088H98.2766V72.6361Z" fill="white"/>
<path d="M102.55 72.6361H98.2773V76.9088H102.55V72.6361Z" fill="white"/>
<path d="M106.824 72.6361H102.551V76.9088H106.824V72.6361Z" fill="white"/>
<path d="M115.368 72.6361H111.096V76.9088H115.368V72.6361Z" fill="white"/>
<path d="M119.638 72.6361H115.365V76.9088H119.638V72.6361Z" fill="white"/>
<path d="M17.095 76.9087H12.8223V81.1814H17.095V76.9087Z" fill="white"/>
<path d="M25.638 76.9087H21.3652V81.1814H25.638V76.9087Z" fill="white"/>
<path d="M29.9134 76.9087H25.6406V81.1814H29.9134V76.9087Z" fill="white"/>
<path d="M38.4583 76.9087H34.1855V81.1814H38.4583V76.9087Z" fill="white"/>
<path d="M42.7298 76.9087H38.457V81.1814H42.7298V76.9087Z" fill="white"/>
<path d="M47.0071 76.9087H42.7344V81.1814H47.0071V76.9087Z" fill="white"/>
<path d="M51.2766 76.9089H47.0039V81.1817H51.2766V76.9089Z" fill="white"/>
<path d="M59.8235 76.9087H55.5508V81.1814H59.8235V76.9087Z" fill="white"/>
<path d="M68.3684 76.9089H64.0957V81.1817H68.3684V76.9089Z" fill="white"/>
<path d="M81.1848 76.9089H76.9121V81.1817H81.1848V76.9089Z" fill="white"/>
<path d="M85.4583 76.9087H81.1855V81.1814H85.4583V76.9087Z" fill="white"/>
<path d="M94.0071 76.9087H89.7344V81.1814H94.0071V76.9087Z" fill="white"/>
<path d="M119.638 76.9087H115.365V81.1814H119.638V76.9087Z" fill="white"/>
<path d="M123.913 76.9087H119.641V81.1814H123.913V76.9087Z" fill="white"/>
<path d="M12.8235 81.1815H8.55078V85.4542H12.8235V81.1815Z" fill="white"/>
<path d="M17.095 81.1815H12.8223V85.4542H17.095V81.1815Z" fill="white"/>
<path d="M25.638 81.1815H21.3652V85.4542H25.638V81.1815Z" fill="white"/>
<path d="M47.0071 81.1815H42.7344V85.4542H47.0071V81.1815Z" fill="white"/>
<path d="M51.2766 81.1816H47.0039V85.4544H51.2766V81.1816Z" fill="white"/>
<path d="M55.5501 81.1815H51.2773V85.4542H55.5501V81.1815Z" fill="white"/>
<path d="M64.095 81.1815H59.8223V85.4542H64.095V81.1815Z" fill="white"/>
<path d="M72.638 81.1815H68.3652V85.4542H72.638V81.1815Z" fill="white"/>
<path d="M81.1848 81.1816H76.9121V85.4544H81.1848V81.1816Z" fill="white"/>
<path d="M85.4583 81.1815H81.1855V85.4542H85.4583V81.1815Z" fill="white"/>
<path d="M89.7298 81.1815H85.457V85.4542H89.7298V81.1815Z" fill="white"/>
<path d="M106.824 81.1815H102.551V85.4542H106.824V81.1815Z" fill="white"/>
<path d="M115.368 81.1816H111.096V85.4544H115.368V81.1816Z" fill="white"/>
<path d="M128.185 81.1816H123.912V85.4544H128.185V81.1816Z" fill="white"/>
<path d="M132.458 81.1815H128.186V85.4542H132.458V81.1815Z" fill="white"/>
<path d="M12.8235 85.4543H8.55078V89.7271H12.8235V85.4543Z" fill="white"/>
<path d="M29.9134 85.4543H25.6406V89.7271H29.9134V85.4543Z" fill="white"/>
<path d="M38.4583 85.4543H34.1855V89.7271H38.4583V85.4543Z" fill="white"/>
<path d="M42.7298 85.4543H38.457V89.7271H42.7298V85.4543Z" fill="white"/>
<path d="M47.0071 85.4543H42.7344V89.7271H47.0071V85.4543Z" fill="white"/>
<path d="M59.8235 85.4543H55.5508V89.7271H59.8235V85.4543Z" fill="white"/>
<path d="M64.095 85.4545H59.8223V89.7272H64.095V85.4545Z" fill="white"/>
<path d="M76.9134 85.4543H72.6406V89.7271H76.9134V85.4543Z" fill="white"/>
<path d="M81.1848 85.4543H76.9121V89.7271H81.1848V85.4543Z" fill="white"/>
<path d="M98.2766 85.4543H94.0039V89.7271H98.2766V85.4543Z" fill="white"/>
<path d="M106.824 85.4543H102.551V89.7271H106.824V85.4543Z" fill="white"/>
<path d="M111.095 85.4545H106.822V89.7272H111.095V85.4545Z" fill="white"/>
<path d="M115.368 85.4543H111.096V89.7271H115.368V85.4543Z" fill="white"/>
<path d="M119.638 85.4543H115.365V89.7271H119.638V85.4543Z" fill="white"/>
<path d="M123.913 85.4543H119.641V89.7271H123.913V85.4543Z" fill="white"/>
<path d="M12.8235 89.7271H8.55078V93.9998H12.8235V89.7271Z" fill="white"/>
<path d="M21.3684 89.7271H17.0957V93.9998H21.3684V89.7271Z" fill="white"/>
<path d="M25.638 89.7271H21.3652V93.9998H25.638V89.7271Z" fill="white"/>
<path d="M29.9134 89.7271H25.6406V93.9998H29.9134V89.7271Z" fill="white"/>
<path d="M42.7298 89.7271H38.457V93.9998H42.7298V89.7271Z" fill="white"/>
<path d="M47.0071 89.7271H42.7344V93.9998H47.0071V89.7271Z" fill="white"/>
<path d="M51.2766 89.7271H47.0039V93.9998H51.2766V89.7271Z" fill="white"/>
<path d="M55.5501 89.7271H51.2773V93.9998H55.5501V89.7271Z" fill="white"/>
<path d="M59.8235 89.7271H55.5508V93.9998H59.8235V89.7271Z" fill="white"/>
<path d="M72.638 89.7271H68.3652V93.9998H72.638V89.7271Z" fill="white"/>
<path d="M76.9134 89.7271H72.6406V93.9998H76.9134V89.7271Z" fill="white"/>
<path d="M81.1848 89.7271H76.9121V93.9998H81.1848V89.7271Z" fill="white"/>
<path d="M94.0071 89.7271H89.7344V93.9998H94.0071V89.7271Z" fill="white"/>
<path d="M98.2766 89.7271H94.0039V93.9998H98.2766V89.7271Z" fill="white"/>
<path d="M106.824 89.7271H102.551V93.9998H106.824V89.7271Z" fill="white"/>
<path d="M111.095 89.7271H106.822V93.9998H111.095V89.7271Z" fill="white"/>
<path d="M119.638 89.7271H115.365V93.9998H119.638V89.7271Z" fill="white"/>
<path d="M12.8235 93.9998H8.55078V98.2725H12.8235V93.9998Z" fill="white"/>
<path d="M21.3684 93.9998H17.0957V98.2725H21.3684V93.9998Z" fill="white"/>
<path d="M34.1848 93.9998H29.9121V98.2725H34.1848V93.9998Z" fill="white"/>
<path d="M38.4583 93.9998H34.1855V98.2725H38.4583V93.9998Z" fill="white"/>
<path d="M42.7298 93.9998H38.457V98.2725H42.7298V93.9998Z" fill="white"/>
<path d="M47.0071 93.9998H42.7344V98.2725H47.0071V93.9998Z" fill="white"/>
<path d="M55.5501 93.9998H51.2773V98.2725H55.5501V93.9998Z" fill="white"/>
<path d="M72.638 93.9998H68.3652V98.2725H72.638V93.9998Z" fill="white"/>
<path d="M81.1848 93.9998H76.9121V98.2725H81.1848V93.9998Z" fill="white"/>
<path d="M85.4583 93.9998H81.1855V98.2725H85.4583V93.9998Z" fill="white"/>
<path d="M89.7298 93.9998H85.457V98.2725H89.7298V93.9998Z" fill="white"/>
<path d="M94.0071 93.9998H89.7344V98.2725H94.0071V93.9998Z" fill="white"/>
<path d="M98.2766 93.9998H94.0039V98.2725H98.2766V93.9998Z" fill="white"/>
<path d="M102.55 93.9998H98.2773V98.2725H102.55V93.9998Z" fill="white"/>
<path d="M106.824 93.9998H102.551V98.2725H106.824V93.9998Z" fill="white"/>
<path d="M111.095 93.9998H106.822V98.2725H111.095V93.9998Z" fill="white"/>
<path d="M115.368 93.9998H111.096V98.2725H115.368V93.9998Z" fill="white"/>
<path d="M123.913 93.9998H119.641V98.2725H123.913V93.9998Z" fill="white"/>
<path d="M47.0071 98.2725H42.7344V102.545H47.0071V98.2725Z" fill="white"/>
<path d="M51.2766 98.2725H47.0039V102.545H51.2766V98.2725Z" fill="white"/>
<path d="M59.8235 98.2725H55.5508V102.545H59.8235V98.2725Z" fill="white"/>
<path d="M64.095 98.2725H59.8223V102.545H64.095V98.2725Z" fill="white"/>
<path d="M89.7298 98.2725H85.457V102.545H89.7298V98.2725Z" fill="white"/>
<path d="M98.2766 98.2725H94.0039V102.545H98.2766V98.2725Z" fill="white"/>
<path d="M115.368 98.2725H111.096V102.545H115.368V98.2725Z" fill="white"/>
<path d="M119.638 98.2725H115.365V102.545H119.638V98.2725Z" fill="white"/>
<path d="M132.458 98.2725H128.186V102.545H132.458V98.2725Z" fill="white"/>
<path d="M55.5501 102.545H51.2773V106.818H55.5501V102.545Z" fill="white"/>
<path d="M59.8235 102.545H55.5508V106.818H59.8235V102.545Z" fill="white"/>
<path d="M68.3684 102.545H64.0957V106.818H68.3684V102.545Z" fill="white"/>
<path d="M85.4583 102.545H81.1855V106.818H85.4583V102.545Z" fill="white"/>
<path d="M89.7298 102.545H85.457V106.818H89.7298V102.545Z" fill="white"/>
<path d="M94.0071 102.545H89.7344V106.818H94.0071V102.545Z" fill="white"/>
<path d="M98.2766 102.545H94.0039V106.818H98.2766V102.545Z" fill="white"/>
<path d="M106.824 102.545H102.551V106.818H106.824V102.545Z" fill="white"/>
<path d="M115.368 102.545H111.096V106.818H115.368V102.545Z" fill="white"/>
<path d="M59.8235 106.818H55.5508V111.091H59.8235V106.818Z" fill="white"/>
<path d="M72.638 106.818H68.3652V111.091H72.638V106.818Z" fill="white"/>
<path d="M81.1848 106.818H76.9121V111.091H81.1848V106.818Z" fill="white"/>
<path d="M89.7298 106.818H85.457V111.091H89.7298V106.818Z" fill="white"/>
<path d="M94.0071 106.818H89.7344V111.091H94.0071V106.818Z" fill="white"/>
<path d="M98.2766 106.818H94.0039V111.091H98.2766V106.818Z" fill="white"/>
<path d="M115.368 106.818H111.096V111.091H115.368V106.818Z" fill="white"/>
<path d="M119.638 106.818H115.365V111.091H119.638V106.818Z" fill="white"/>
<path d="M132.458 106.818H128.186V111.091H132.458V106.818Z" fill="white"/>
<path d="M47.0071 111.091H42.7344V115.364H47.0071V111.091Z" fill="white"/>
<path d="M68.3684 111.091H64.0957V115.363H68.3684V111.091Z" fill="white"/>
<path d="M72.638 111.091H68.3652V115.364H72.638V111.091Z" fill="white"/>
<path d="M85.4583 111.091H81.1855V115.364H85.4583V111.091Z" fill="white"/>
<path d="M98.2766 111.091H94.0039V115.363H98.2766V111.091Z" fill="white"/>
<path d="M102.55 111.091H98.2773V115.364H102.55V111.091Z" fill="white"/>
<path d="M106.824 111.091H102.551V115.364H106.824V111.091Z" fill="white"/>
<path d="M111.095 111.091H106.822V115.364H111.095V111.091Z" fill="white"/>
<path d="M115.368 111.091H111.096V115.363H115.368V111.091Z" fill="white"/>
<path d="M119.638 111.091H115.365V115.364H119.638V111.091Z" fill="white"/>
<path d="M123.913 111.091H119.641V115.364H123.913V111.091Z" fill="white"/>
<path d="M47.0071 115.364H42.7344V119.636H47.0071V115.364Z" fill="white"/>
<path d="M51.2766 115.364H47.0039V119.636H51.2766V115.364Z" fill="white"/>
<path d="M68.3684 115.364H64.0957V119.636H68.3684V115.364Z" fill="white"/>
<path d="M72.638 115.364H68.3652V119.636H72.638V115.364Z" fill="white"/>
<path d="M76.9134 115.364H72.6406V119.636H76.9134V115.364Z" fill="white"/>
<path d="M85.4583 115.364H81.1855V119.636H85.4583V115.364Z" fill="white"/>
<path d="M94.0071 115.364H89.7344V119.636H94.0071V115.364Z" fill="white"/>
<path d="M98.2766 115.364H94.0039V119.636H98.2766V115.364Z" fill="white"/>
<path d="M102.55 115.364H98.2773V119.636H102.55V115.364Z" fill="white"/>
<path d="M111.095 115.364H106.822V119.636H111.095V115.364Z" fill="white"/>
<path d="M119.638 115.364H115.365V119.636H119.638V115.364Z" fill="white"/>
<path d="M123.913 115.364H119.641V119.636H123.913V115.364Z" fill="white"/>
<path d="M47.0071 119.636H42.7344V123.909H47.0071V119.636Z" fill="white"/>
<path d="M55.5501 119.636H51.2773V123.909H55.5501V119.636Z" fill="white"/>
<path d="M64.095 119.636H59.8223V123.909H64.095V119.636Z" fill="white"/>
<path d="M68.3684 119.636H64.0957V123.909H68.3684V119.636Z" fill="white"/>
<path d="M72.638 119.636H68.3652V123.909H72.638V119.636Z" fill="white"/>
<path d="M76.9134 119.636H72.6406V123.909H76.9134V119.636Z" fill="white"/>
<path d="M81.1848 119.636H76.9121V123.909H81.1848V119.636Z" fill="white"/>
<path d="M89.7298 119.636H85.457V123.909H89.7298V119.636Z" fill="white"/>
<path d="M94.0071 119.636H89.7344V123.909H94.0071V119.636Z" fill="white"/>
<path d="M98.2766 119.636H94.0039V123.909H98.2766V119.636Z" fill="white"/>
<path d="M102.55 119.636H98.2773V123.909H102.55V119.636Z" fill="white"/>
<path d="M106.824 119.636H102.551V123.909H106.824V119.636Z" fill="white"/>
<path d="M111.095 119.636H106.822V123.909H111.095V119.636Z" fill="white"/>
<path d="M115.368 119.636H111.096V123.909H115.368V119.636Z" fill="white"/>
<path d="M119.638 119.636H115.365V123.909H119.638V119.636Z" fill="white"/>
<path d="M123.913 119.636H119.641V123.909H123.913V119.636Z" fill="white"/>
<path d="M128.185 119.636H123.912V123.909H128.185V119.636Z" fill="white"/>
<path d="M51.2766 123.909H47.0039V128.182H51.2766V123.909Z" fill="white"/>
<path d="M55.5501 123.909H51.2773V128.181H55.5501V123.909Z" fill="white"/>
<path d="M64.095 123.909H59.8223V128.181H64.095V123.909Z" fill="white"/>
<path d="M72.638 123.909H68.3652V128.181H72.638V123.909Z" fill="white"/>
<path d="M89.7298 123.909H85.457V128.181H89.7298V123.909Z" fill="white"/>
<path d="M98.2766 123.909H94.0039V128.182H98.2766V123.909Z" fill="white"/>
<path d="M102.55 123.909H98.2773V128.181H102.55V123.909Z" fill="white"/>
<path d="M115.368 123.909H111.096V128.182H115.368V123.909Z" fill="white"/>
<path d="M119.638 123.909H115.365V128.181H119.638V123.909Z" fill="white"/>
<path d="M128.185 123.909H123.912V128.182H128.185V123.909Z" fill="white"/>
<path d="M76.9134 128.182H72.6406V132.454H76.9134V128.182Z" fill="white"/>
<path d="M89.7298 128.182H85.457V132.454H89.7298V128.182Z" fill="white"/>
<path d="M102.55 128.182H98.2773V132.454H102.55V128.182Z" fill="white"/>
<path d="M106.824 128.182H102.551V132.454H106.824V128.182Z" fill="white"/>
<path d="M115.368 128.182H111.096V132.454H115.368V128.182Z" fill="white"/>
<path d="M123.913 128.182H119.641V132.454H123.913V128.182Z" fill="white"/>
</mask>
<g mask="url(#mask0_176_3353)">
<path d="M141 0H0V141H141V0Z" fill="black"/>
</g>
<path d="M8.54688 8.54529V38.4544H38.456V8.54529H8.54688ZM34.1832 34.1817H12.8196V12.818H34.1832V34.1817Z" fill="black"/>
<path d="M102.547 8.54529V38.4544H132.456V8.54529H102.547ZM128.183 34.1817H106.82V12.818H128.183V34.1817Z" fill="black"/>
<path d="M8.54688 102.545V132.454H38.456V102.545H8.54688ZM34.1832 128.182H12.8196V106.818H34.1832V128.182Z" fill="black"/>
<path d="M29.908 17.0911H17.0898V29.9092H29.908V17.0911Z" fill="black"/>
<path d="M123.908 17.0911H111.09V29.9092H123.908V17.0911Z" fill="black"/>
<path d="M29.908 111.091H17.0898V123.909H29.908V111.091Z" fill="black"/>
</g>
<defs>
<clipPath id="clip0_176_3353">
<rect width="141" height="141" fill="white"/>
</clipPath>
</defs>
</svg>
